<?xml version="1.0" encoding="UTF-8" standalone="no"?>
<svg xmlns:xlink="http://www.w3.org/1999/xlink" height="75.65px" width="75.55px" xmlns="http://www.w3.org/2000/svg">
  <g transform="matrix(1.0, 0.0, 0.0, 1.0, 38.25, 43.25)">
    <path d="M33.2 -19.8 L33.65 -19.55 33.75 -19.4 33.2 -19.8" fill="#ffffff" fill-opacity="0.12941177" fill-rule="evenodd" stroke="none"/>
    <path d="M26.4 -39.4 Q27.65 -39.15 28.75 -38.2 L29.1 -37.9 Q30.6 -36.6 31.7 -34.7 L31.7 -34.75 Q32.65 -33.2 32.65 -32.3 L32.65 -32.05 32.7 -31.9 32.7 -31.45 32.1 -28.9 32.1 -28.85 31.7 -27.6 31.2 -26.75 33.2 -25.5 33.25 -25.45 Q35.05 -24.65 34.1 -19.2 L34.0 -18.8 34.05 -19.25 33.65 -19.55 Q33.25 -20.0 32.05 -20.25 L33.95 -17.45 34.1 -19.2 Q34.95 -18.4 35.65 -16.9 L35.65 -17.0 Q36.45 -15.45 36.65 -13.95 37.85 -6.05 36.85 11.4 35.8 29.6 33.75 31.15 32.55 32.8 27.7 32.3 L27.55 32.3 24.7 31.85 -25.6 31.85 -28.65 32.3 Q-33.5 32.8 -34.65 31.15 -36.9 29.45 -37.9 11.3 -38.8 -5.95 -37.5 -14.0 -37.25 -15.5 -36.6 -16.85 L-36.6 -16.9 Q-35.55 -19.1 -34.2 -19.75 -33.3 -20.55 -30.7 -20.55 L-30.15 -26.4 Q-29.6 -31.05 -26.05 -33.5 -23.35 -35.55 -17.9 -36.45 L-17.3 -38.5 -17.25 -38.6 -17.25 -38.65 Q-15.55 -42.15 -12.35 -42.4 L-12.3 -42.4 Q-9.05 -42.8 -6.75 -40.0 -5.85 -39.0 -5.25 -37.6 L-2.4 -37.35 0.25 -36.9 2.2 -35.5 2.5 -34.5 3.6 -34.55 4.35 -34.5 4.35 -34.55 4.4 -34.6 4.45 -34.85 Q4.45 -35.45 5.6 -38.85 L5.7 -39.1 Q6.45 -41.3 10.25 -42.55 L10.2 -42.55 Q14.5 -44.1 16.2 -42.15 L16.2 -42.1 Q17.25 -41.3 18.9 -37.9 L18.9 -37.85 19.5 -36.65 23.75 -39.05 Q24.8 -39.9 26.6 -39.4 L26.4 -39.4 M31.0 -26.4 L31.1 -26.6 30.95 -26.4 31.0 -26.4 M16.4 -21.8 L16.5 -21.75 16.45 -21.8 16.4 -21.8 M-12.15 -37.25 L-12.75 -36.45 -12.85 -36.1 -11.6 -34.9 -12.1 -35.9 -12.2 -36.05 -11.55 -36.0 Q-10.8 -36.55 -11.0 -36.15 L-10.95 -36.25 -11.25 -34.9 -10.2 -36.25 -10.5 -36.7 -10.6 -36.8 -11.2 -37.3 -12.15 -37.25" fill="#ffffff" fill-rule="evenodd" stroke="none"/>
  </g>
</svg>
