<?xml version="1.0" encoding="UTF-8" standalone="no"?>
<svg xmlns:xlink="http://www.w3.org/1999/xlink" height="32.35px" width="35.95px" xmlns="http://www.w3.org/2000/svg">
  <g transform="matrix(1.0, 0.0, 0.0, 1.0, 17.55, 16.7)">
    <path d="M0.75 -16.7 Q3.45 -16.7 5.05 -14.1 5.7 -13.2 6.05 -11.8 9.95 -11.25 11.6 -9.8 15.0 -7.55 16.25 -3.95 20.5 8.45 16.3 11.05 14.6 12.1 12.7 12.35 10.5 15.2 5.25 15.6 L4.4 15.65 -11.45 15.65 Q-13.8 15.65 -15.45 14.0 -17.05 12.4 -17.05 10.1 L-17.05 9.95 -17.0 9.85 -16.5 5.0 -16.55 5.0 Q-18.0 4.0 -17.35 0.45 L-16.2 -5.0 Q-15.5 -7.4 -14.15 -8.95 L-12.3 -10.35 Q-10.35 -11.65 -4.45 -12.05 L-3.55 -14.1 Q-1.9 -16.7 0.75 -16.7" fill="#ffffff" fill-rule="evenodd" stroke="none"/>
  </g>
</svg>
