<?xml version="1.0" encoding="UTF-8" standalone="no"?>
<svg xmlns:xlink="http://www.w3.org/1999/xlink" height="400.0px" width="280.0px" xmlns="http://www.w3.org/2000/svg">
  <g transform="matrix(1.0, 0.0, 0.0, 1.0, 0.0, 0.0)">
    <path d="M280.0 0.0 L280.0 400.0 0.0 400.0 0.0 0.0 280.0 0.0" fill="#e19a04" fill-rule="evenodd" stroke="none"/>
    <path d="M277.6 136.05 L2.2 136.05 2.2 2.5 277.6 2.5 277.6 136.05" fill="url(#gradient0)" fill-rule="evenodd" stroke="none"/>
    <path d="M255.45 2.9 L279.0 2.9 279.0 43.4 15.95 227.65 15.95 170.65 255.45 2.9" fill="url(#gradient1)" fill-rule="evenodd" stroke="none"/>
    <path d="M279.0 68.05 L279.0 105.05 23.9 283.7 23.9 246.7 279.0 68.05" fill="url(#gradient2)" fill-rule="evenodd" stroke="none"/>
    <path d="M279.0 251.3 L279.0 288.3 122.4 398.0 69.55 398.0 279.0 251.3" fill="url(#gradient3)" fill-rule="evenodd" stroke="none"/>
    <path d="M279.0 307.45 L279.0 364.45 231.1 398.0 149.7 398.0 279.0 307.45" fill="url(#gradient4)" fill-rule="evenodd" stroke="none"/>
    <path d="M1.9 32.1 L1.9 2.9 43.6 2.9 1.9 32.1" fill="url(#gradient5)" fill-rule="evenodd" stroke="none"/>
    <path d="M1.9 92.25 L1.9 55.2 76.6 2.9 129.45 2.9 1.9 92.25" fill="url(#gradient6)" fill-rule="evenodd" stroke="none"/>
    <path d="M0.0 0.0 L2.45 2.85 2.45 397.1 0.0 400.0 0.0 0.0" fill="#000000" fill-opacity="0.2509804" fill-rule="evenodd" stroke="none"/>
    <path d="M277.5 397.1 L280.0 400.0 0.0 400.0 2.45 397.1 277.5 397.1" fill="#000000" fill-opacity="0.34901962" fill-rule="evenodd" stroke="none"/>
    <path d="M2.45 2.85 L0.0 0.0 280.0 0.0 280.0 400.0 277.5 397.1 277.5 2.85 2.45 2.85" fill="#ffffff" fill-opacity="0.7019608" fill-rule="evenodd" stroke="none"/>
    <path d="M2.6 259.55 L277.35 259.55 277.35 396.85 2.6 396.85 2.6 259.55" fill="url(#gradient7)" fill-rule="evenodd" stroke="none"/>
    <path d="M249.05 20.2 Q263.3 20.2 263.3 35.0 L263.3 69.65 263.3 364.95 263.3 365.15 Q263.3 379.25 250.3 379.95 L250.2 379.95 250.1 379.95 250.0 379.95 249.8 379.95 249.7 379.95 249.5 379.95 249.4 379.95 249.15 379.95 249.05 379.95 30.9 379.95 Q16.7 379.95 16.7 365.15 L16.7 364.95 16.7 69.65 16.7 35.0 Q16.7 20.2 30.9 20.2 L249.05 20.2" fill="#feda60" fill-rule="evenodd" stroke="none"/>
    <path d="M259.3 35.0 L259.3 55.1 20.7 222.25 20.7 165.25 53.85 142.0 222.05 24.2 249.1 24.2 Q259.3 24.3 259.3 35.0" fill="url(#gradient8)" fill-rule="evenodd" stroke="none"/>
    <path d="M259.3 116.75 L20.9 283.7 20.9 246.7 259.3 79.75 259.3 116.75" fill="url(#gradient9)" fill-rule="evenodd" stroke="none"/>
    <path d="M20.7 39.95 L43.15 24.2 96.05 24.2 20.7 77.0 20.7 39.95" fill="url(#gradient10)" fill-rule="evenodd" stroke="none"/>
    <path d="M98.05 375.95 L259.3 263.0 259.3 300.0 150.9 375.95 98.05 375.95" fill="url(#gradient11)" fill-rule="evenodd" stroke="none"/>
    <path d="M249.1 375.95 L178.2 375.95 259.3 319.15 259.3 365.15 Q259.3 375.85 249.1 375.95" fill="url(#gradient12)" fill-rule="evenodd" stroke="none"/>
  </g>
  <defs>
    <linearGradient gradientTransform="matrix(0.0, -0.0654, 0.0819, 0.0, 139.85, 69.25)" gradientUnits="userSpaceOnUse" id="gradient0" spreadMethod="pad" x1="-819.2" x2="819.2">
      <stop offset="0.4549019607843137" stop-color="#ffffff" stop-opacity="0.0"/>
      <stop offset="1.0" stop-color="#ffffff" stop-opacity="0.3019608"/>
    </linearGradient>
    <linearGradient gradientTransform="matrix(0.1685, -0.118, 0.0, 0.0226, 153.95, 112.5)" gradientUnits="userSpaceOnUse" id="gradient1" spreadMethod="pad" x1="-819.2" x2="819.2">
      <stop offset="0.0" stop-color="#ffffff" stop-opacity="0.0"/>
      <stop offset="1.0" stop-color="#ffffff" stop-opacity="0.2"/>
    </linearGradient>
    <linearGradient gradientTransform="matrix(0.1685, -0.118, 0.0, 0.0226, 161.9, 168.55)" gradientUnits="userSpaceOnUse" id="gradient2" spreadMethod="pad" x1="-819.2" x2="819.2">
      <stop offset="0.0" stop-color="#ffffff" stop-opacity="0.0"/>
      <stop offset="1.0" stop-color="#ffffff" stop-opacity="0.2"/>
    </linearGradient>
    <linearGradient gradientTransform="matrix(0.1685, -0.118, 0.0, 0.0226, 160.8, 352.6)" gradientUnits="userSpaceOnUse" id="gradient3" spreadMethod="pad" x1="-819.2" x2="819.2">
      <stop offset="0.0" stop-color="#ffffff" stop-opacity="0.0"/>
      <stop offset="1.0" stop-color="#ffffff" stop-opacity="0.2"/>
    </linearGradient>
    <linearGradient gradientTransform="matrix(0.1685, -0.118, 0.0, 0.0226, 210.95, 393.6)" gradientUnits="userSpaceOnUse" id="gradient4" spreadMethod="pad" x1="-819.2" x2="819.2">
      <stop offset="0.0" stop-color="#ffffff" stop-opacity="0.0"/>
      <stop offset="1.0" stop-color="#ffffff" stop-opacity="0.2"/>
    </linearGradient>
    <linearGradient gradientTransform="matrix(0.1685, -0.118, 0.0, 0.0226, 4.9, 11.5)" gradientUnits="userSpaceOnUse" id="gradient5" spreadMethod="pad" x1="-819.2" x2="819.2">
      <stop offset="0.0" stop-color="#ffffff" stop-opacity="0.0"/>
      <stop offset="1.0" stop-color="#ffffff" stop-opacity="0.2"/>
    </linearGradient>
    <linearGradient gradientTransform="matrix(0.1685, -0.118, 0.0, 0.0226, 47.9, 41.5)" gradientUnits="userSpaceOnUse" id="gradient6" spreadMethod="pad" x1="-819.2" x2="819.2">
      <stop offset="0.0" stop-color="#ffffff" stop-opacity="0.0"/>
      <stop offset="1.0" stop-color="#ffffff" stop-opacity="0.2"/>
    </linearGradient>
    <linearGradient gradientTransform="matrix(0.0, 0.0672, -0.0817, 0.0, 140.0, 328.25)" gradientUnits="userSpaceOnUse" id="gradient7" spreadMethod="pad" x1="-819.2" x2="819.2">
      <stop offset="0.4549019607843137" stop-color="#ffffff" stop-opacity="0.0"/>
      <stop offset="1.0" stop-color="#ffffff" stop-opacity="0.3019608"/>
    </linearGradient>
    <linearGradient gradientTransform="matrix(0.1685, -0.118, 0.0, 0.0226, 150.95, 112.5)" gradientUnits="userSpaceOnUse" id="gradient8" spreadMethod="pad" x1="-819.2" x2="819.2">
      <stop offset="0.0" stop-color="#ffffff" stop-opacity="0.0"/>
      <stop offset="1.0" stop-color="#ffffff" stop-opacity="0.3019608"/>
    </linearGradient>
    <linearGradient gradientTransform="matrix(0.1685, -0.118, 0.0, 0.0226, 158.9, 168.55)" gradientUnits="userSpaceOnUse" id="gradient9" spreadMethod="pad" x1="-819.2" x2="819.2">
      <stop offset="0.0" stop-color="#ffffff" stop-opacity="0.0"/>
      <stop offset="1.0" stop-color="#ffffff" stop-opacity="0.3019608"/>
    </linearGradient>
    <linearGradient gradientTransform="matrix(0.1685, -0.118, 0.0, 0.0226, 44.9, 41.5)" gradientUnits="userSpaceOnUse" id="gradient10" spreadMethod="pad" x1="-819.2" x2="819.2">
      <stop offset="0.0" stop-color="#ffffff" stop-opacity="0.0"/>
      <stop offset="1.0" stop-color="#ffffff" stop-opacity="0.3019608"/>
    </linearGradient>
    <linearGradient gradientTransform="matrix(0.1685, -0.118, 0.0, 0.0226, 157.8, 352.6)" gradientUnits="userSpaceOnUse" id="gradient11" spreadMethod="pad" x1="-819.2" x2="819.2">
      <stop offset="0.0" stop-color="#ffffff" stop-opacity="0.0"/>
      <stop offset="1.0" stop-color="#ffffff" stop-opacity="0.3019608"/>
    </linearGradient>
    <linearGradient gradientTransform="matrix(0.1685, -0.118, 0.0, 0.0226, 207.95, 393.6)" gradientUnits="userSpaceOnUse" id="gradient12" spreadMethod="pad" x1="-819.2" x2="819.2">
      <stop offset="0.0" stop-color="#ffffff" stop-opacity="0.0"/>
      <stop offset="1.0" stop-color="#ffffff" stop-opacity="0.3019608"/>
    </linearGradient>
  </defs>
</svg>
