<?xml version="1.0" encoding="UTF-8" standalone="no"?>
<svg xmlns:xlink="http://www.w3.org/1999/xlink" height="118.9px" width="212.6px" xmlns="http://www.w3.org/2000/svg">
  <g transform="matrix(1.0, 0.0, 0.0, 1.0, -0.15, 0.5)">
    <path d="M211.45 102.0 Q212.1 100.05 211.4 98.85 L210.05 96.9 Q209.45 96.15 209.25 96.55 M182.85 110.95 L186.3 110.05 Q187.95 109.5 190.3 109.2 L194.7 108.7 Q196.75 108.45 199.0 107.25 201.3 106.1 202.75 105.7 204.25 105.3 205.95 104.4 207.7 103.5 209.55 103.15 M148.8 115.3 Q150.85 114.5 153.3 114.35 L157.2 114.3 160.55 114.1 164.2 113.7 167.9 113.35 172.7 112.7 177.15 111.9 180.65 111.35 M5.6 93.85 L2.9 95.9 Q1.25 97.1 1.15 98.2 1.1 99.35 2.3 101.4 3.55 103.45 5.4 104.1 L9.25 105.45 Q11.2 106.15 12.9 106.95 14.6 107.7 16.8 108.1 L21.05 109.0 24.9 110.15 M27.15 110.55 L31.75 110.85 Q33.75 110.8 35.55 111.8 37.4 112.85 39.3 112.4 L43.2 112.25 Q45.25 112.55 47.0 113.25 48.8 114.0 51.15 114.1 L55.75 114.55 60.2 114.85 63.95 114.6 Q65.5 114.45 67.55 115.35 M69.85 115.45 L73.6 116.05 78.05 116.65 82.3 116.75 86.0 116.65 90.25 116.7 94.05 116.75 M118.5 116.8 Q120.95 115.8 122.7 115.9 L126.5 116.25 130.95 116.4 135.0 115.85 138.75 115.65 142.35 116.25 Q143.85 116.6 146.5 115.5 M96.3 116.8 L100.4 117.0 104.25 116.8 108.5 116.8 112.6 116.35 Q114.3 115.9 116.3 116.85" fill="none" stroke="#d4b46e" stroke-linecap="round" stroke-linejoin="round" stroke-width="2.0"/>
    <path d="M167.3 39.9 Q169.25 41.8 169.25 44.55 169.25 46.2 168.55 47.5 170.9 47.65 172.55 49.35 174.5 51.25 174.5 54.0 L174.45 55.0 175.85 54.8 Q178.6 54.8 180.5 56.7 182.15 58.35 182.35 60.65 L184.3 60.35 Q187.0 60.35 188.9 62.25 190.65 64.0 190.8 66.4 194.4 66.55 196.95 69.15 199.8 71.95 199.8 75.95 199.8 79.95 196.95 82.75 L196.0 83.65 Q196.35 84.65 196.35 85.85 196.35 88.55 194.4 90.4 193.25 91.6 191.8 92.05 193.15 93.8 193.15 96.1 193.15 98.8 191.25 100.7 189.35 102.6 186.65 102.6 183.95 102.6 182.0 100.7 181.0 99.65 180.5 98.35 L34.5 96.2 33.6 97.25 Q31.7 99.2 28.95 99.2 26.3 99.2 24.35 97.25 22.45 95.4 22.45 92.65 L22.55 91.6 Q19.95 91.55 18.05 89.65 16.2 87.75 16.2 85.05 16.2 83.95 16.5 83.05 14.3 82.35 12.6 80.65 9.8 77.85 9.8 73.85 9.8 69.85 12.6 67.05 L13.85 66.0 Q12.75 64.45 12.75 62.4 12.75 59.75 14.65 57.8 15.85 56.65 17.35 56.2 16.5 54.75 16.5 52.95 16.5 50.25 18.35 48.3 20.3 46.45 22.95 46.45 L22.75 44.4 Q22.75 40.4 25.5 37.6 28.35 34.8 32.3 34.8 35.45 34.8 37.85 36.5 39.7 34.9 42.2 34.9 L43.55 35.0 43.5 34.1 Q43.5 30.15 46.3 27.3 49.1 24.55 53.1 24.55 57.15 24.55 59.9 27.3 61.0 28.45 61.7 29.75 L61.7 29.1 Q61.7 25.15 64.45 22.3 67.3 19.55 71.25 19.55 73.55 19.55 75.45 20.45 75.65 18.2 77.3 16.5 79.2 14.65 81.9 14.65 83.75 14.65 85.25 15.55 85.9 13.75 87.35 12.3 90.15 9.55 94.1 9.55 98.2 9.55 100.9 12.3 L101.45 12.85 Q102.95 12.0 104.75 12.0 107.5 12.0 109.4 13.85 110.55 15.0 111.0 16.5 L112.95 16.2 Q115.65 16.2 117.55 18.1 119.45 20.0 119.45 22.75 L119.45 23.05 Q121.85 23.2 123.6 24.9 L124.45 25.9 124.75 25.9 Q126.3 25.9 127.6 26.5 130.35 24.0 134.15 24.0 138.2 24.0 140.95 26.75 L141.3 27.1 Q142.9 25.9 145.05 25.9 147.75 25.9 149.65 27.8 L150.5 28.8 Q152.85 27.15 155.95 27.15 160.0 27.15 162.75 29.95 165.6 32.75 165.6 36.75 L165.45 38.6 167.3 39.9" fill="#4b8057" fill-rule="evenodd" stroke="none"/>
    <path d="M167.3 39.9 Q169.25 41.8 169.25 44.55 169.25 46.2 168.55 47.5 170.9 47.65 172.55 49.35 174.5 51.25 174.5 54.0 L174.45 55.0 175.85 54.8 Q178.6 54.8 180.5 56.7 182.15 58.35 182.35 60.65 L184.3 60.35 Q187.0 60.35 188.9 62.25 190.65 64.0 190.8 66.4 194.4 66.55 196.95 69.15 199.8 71.95 199.8 75.95 199.8 79.95 196.95 82.75 L196.0 83.65 Q196.35 84.65 196.35 85.85 196.35 88.55 194.4 90.4 193.25 91.6 191.8 92.05 193.15 93.8 193.15 96.1 193.15 98.8 191.25 100.7 189.35 102.6 186.65 102.6 183.95 102.6 182.0 100.7 181.0 99.65 180.5 98.35 L34.5 96.2 33.6 97.25 Q31.7 99.2 28.95 99.2 26.3 99.2 24.35 97.25 22.45 95.4 22.45 92.65 L22.55 91.6 Q19.95 91.55 18.05 89.65 16.2 87.75 16.2 85.05 16.2 83.95 16.5 83.05 14.3 82.35 12.6 80.65 9.8 77.85 9.8 73.85 9.8 69.85 12.6 67.05 L13.85 66.0 Q12.75 64.45 12.75 62.4 12.75 59.75 14.65 57.8 15.85 56.65 17.35 56.2 16.5 54.75 16.5 52.95 16.5 50.25 18.35 48.3 20.3 46.45 22.95 46.45 L22.75 44.4 Q22.75 40.4 25.5 37.6 28.35 34.8 32.3 34.8 35.45 34.8 37.85 36.5 39.7 34.9 42.2 34.9 L43.55 35.0 43.5 34.1 Q43.5 30.15 46.3 27.3 49.1 24.55 53.1 24.55 57.15 24.55 59.9 27.3 61.0 28.45 61.7 29.75 L61.7 29.1 Q61.7 25.15 64.45 22.3 67.3 19.55 71.25 19.55 73.55 19.55 75.45 20.45 75.65 18.2 77.3 16.5 79.2 14.65 81.9 14.65 83.75 14.65 85.25 15.55 85.9 13.75 87.35 12.3 90.15 9.55 94.1 9.55 98.2 9.55 100.9 12.3 L101.45 12.85 Q102.95 12.0 104.75 12.0 107.5 12.0 109.4 13.85 110.55 15.0 111.0 16.5 L112.95 16.2 Q115.65 16.2 117.55 18.1 119.45 20.0 119.45 22.75 L119.45 23.05 Q121.85 23.2 123.6 24.9 L124.45 25.9 124.75 25.9 Q126.3 25.9 127.6 26.5 130.35 24.0 134.15 24.0 138.2 24.0 140.95 26.75 L141.3 27.1 Q142.9 25.9 145.05 25.9 147.75 25.9 149.65 27.8 L150.5 28.8 Q152.85 27.15 155.95 27.15 160.0 27.15 162.75 29.95 165.6 32.75 165.6 36.75 L165.45 38.6 167.3 39.9 Z" fill="none" stroke="#366240" stroke-linecap="round" stroke-linejoin="round" stroke-width="1.0"/>
    <path d="M113.3 48.75 Q116.75 52.75 118.8 58.25 122.55 52.4 127.55 49.0 L126.05 54.5 Q124.9 61.75 127.05 70.3 L121.45 69.95 121.5 72.1 107.55 76.55 Q112.55 61.8 113.3 54.45 L113.3 48.75 M94.95 65.7 L92.1 70.65 Q89.15 77.4 100.55 78.85 L76.2 81.9 77.85 79.4 75.9 79.25 Q76.75 75.95 78.95 71.7 83.4 63.2 89.85 58.8 L88.35 64.3 Q87.95 66.75 87.95 69.4 91.35 67.0 94.95 65.7 M186.35 74.5 Q185.35 76.85 184.65 79.5 188.8 77.95 192.9 77.6 L188.85 81.65 Q184.25 87.35 181.85 95.8 L170.6 88.4 172.7 86.55 170.45 85.75 Q172.2 82.75 175.4 79.25 181.85 72.2 189.25 69.55 L186.35 74.5 M58.45 63.2 Q57.3 70.4 59.45 78.95 L47.0 78.25 47.35 79.5 43.25 79.75 43.35 80.0 39.05 81.45 41.6 83.75 30.4 91.15 Q27.95 82.7 23.35 77.0 L19.3 72.95 Q24.45 73.35 29.7 75.75 28.9 72.0 27.45 68.75 L24.6 63.8 Q30.25 65.8 35.35 70.35 35.4 67.35 34.9 64.5 L33.4 59.0 Q39.85 63.4 44.3 71.9 45.65 74.45 46.45 76.7 47.35 73.9 49.05 70.6 53.5 62.1 59.95 57.65 L58.45 63.2" fill="#3c6244" fill-rule="evenodd" stroke="none"/>
    <path d="M131.05 75.1 Q134.0 80.6 144.15 78.5 154.2 76.35 166.0 79.55 177.8 82.7 190.35 88.1 202.85 93.55 201.95 97.8 201.05 102.1 164.3 106.1 127.55 110.15 82.95 108.75 38.35 107.4 15.9 100.9 -6.45 94.35 58.65 80.6 L58.7 80.55 62.1 79.05 Q65.2 77.6 114.4 73.25 L131.05 75.1" fill="#8bbe6a" fill-rule="evenodd" stroke="none"/>
    <path d="M131.05 75.1 Q134.0 80.6 144.15 78.5 154.2 76.35 166.0 79.55 177.8 82.7 190.35 88.1 202.85 93.55 201.95 97.8 201.05 102.1 164.3 106.1 127.55 110.15 82.95 108.75 38.35 107.4 15.9 100.9 -6.45 94.35 58.65 80.6 L58.7 80.55 62.1 79.05 Q65.2 77.6 114.4 73.25 L131.05 75.1 Z" fill="none" stroke="#507442" stroke-linecap="round" stroke-linejoin="round" stroke-width="1.0"/>
    <path d="M88.95 82.5 Q86.65 84.15 78.3 85.85 70.05 87.55 56.45 87.9 42.8 88.25 35.4 85.95 L35.55 74.05 42.7 75.4 Q51.6 76.0 61.2 75.6 70.85 75.25 80.05 73.15 84.6 72.1 87.15 70.45 L88.95 82.5" fill="#afad90" fill-rule="evenodd" stroke="none"/>
    <path d="M88.95 82.5 Q86.65 84.15 78.3 85.85 70.05 87.55 56.45 87.9 42.8 88.25 35.4 85.95 L35.55 74.05 42.7 75.4 Q51.6 76.0 61.2 75.6 70.85 75.25 80.05 73.15 84.6 72.1 87.15 70.45 L88.95 82.5 Z" fill="none" stroke="#85846c" stroke-linecap="round" stroke-linejoin="round" stroke-width="1.0"/>
    <path d="M64.0 86.7 L71.5 85.1 82.8 82.65 Q87.0 82.05 91.6 82.5 L90.4 88.05 64.0 95.1 64.0 86.7" fill="#81be6a" fill-rule="evenodd" stroke="none"/>
    <path d="M91.6 82.5 Q87.0 82.05 82.8 82.65 L71.5 85.1 64.0 86.7" fill="none" stroke="#628e51" stroke-linecap="round" stroke-linejoin="round" stroke-width="1.0"/>
    <path d="M80.05 73.8 Q72.65 75.4 61.95 76.1 51.2 76.75 43.5 76.05 35.75 75.45 35.55 73.85 35.3 72.2 42.75 70.6 50.25 69.0 60.95 68.35 71.65 67.7 79.35 68.3 87.15 69.0 87.4 70.65 87.6 72.25 80.05 73.8" fill="#ecebd3" fill-rule="evenodd" stroke="none"/>
    <path d="M80.05 73.8 Q72.65 75.4 61.95 76.1 51.2 76.75 43.5 76.05 35.75 75.45 35.55 73.85 35.3 72.2 42.75 70.6 50.25 69.0 60.95 68.35 71.65 67.7 79.35 68.3 87.15 69.0 87.4 70.65 87.6 72.25 80.05 73.8 Z" fill="none" stroke="#85846c" stroke-linecap="round" stroke-linejoin="round" stroke-width="1.0"/>
    <path d="M83.45 62.55 Q84.05 65.7 84.0 69.45 82.9 70.3 81.25 70.9 L76.65 71.85 68.9 71.35 68.9 70.7 68.95 65.4 Q69.15 61.2 70.0 60.8 L76.05 59.8 82.1 59.25 Q82.85 59.35 83.45 62.55" fill="#d8d6b0" fill-rule="evenodd" stroke="none"/>
    <path d="M83.45 62.55 Q84.05 65.7 84.0 69.45 82.9 70.3 81.25 70.9 L76.65 71.85 68.9 71.35 68.9 70.7 68.95 65.4 Q69.15 61.2 70.0 60.8 L76.05 59.8 82.1 59.25 Q82.85 59.35 83.45 62.55 Z" fill="none" stroke="#85846c" stroke-linecap="round" stroke-linejoin="round" stroke-width="1.0"/>
    <path d="M164.4 51.65 Q168.3 54.4 172.4 59.55 177.05 65.35 177.2 68.9 177.95 85.35 174.5 89.45 172.35 91.95 169.55 94.1 L167.15 95.75 155.2 98.0 127.9 86.95 120.5 84.5 Q120.35 80.35 120.55 75.85 120.9 66.9 122.75 65.4 123.65 64.7 127.65 62.15 130.7 60.2 131.7 58.75 134.0 55.7 137.35 52.7 142.15 48.45 145.45 48.4 L155.1 48.8 Q161.3 49.55 164.4 51.65" fill="#6b6a56" fill-rule="evenodd" stroke="none"/>
    <path d="M164.4 51.65 Q168.3 54.4 172.4 59.55 177.05 65.35 177.2 68.9 177.95 85.35 174.5 89.45 172.35 91.95 169.55 94.1 L167.15 95.75 155.2 98.0 127.9 86.95 120.5 84.5 Q120.35 80.35 120.55 75.85 120.9 66.9 122.75 65.4 123.65 64.7 127.65 62.15 130.7 60.2 131.7 58.75 134.0 55.7 137.35 52.7 142.15 48.45 145.45 48.4 L155.1 48.8 Q161.3 49.55 164.4 51.65 Z" fill="none" stroke="#7b673f" stroke-linecap="round" stroke-linejoin="round" stroke-width="1.0"/>
    <path d="M154.85 62.05 Q163.45 64.75 168.4 71.75 173.3 78.65 170.75 83.6 168.15 88.55 164.7 93.2 161.05 98.1 157.05 98.45 152.85 98.85 144.0 96.9 135.15 94.95 131.85 92.9 129.1 91.25 126.5 89.1 L124.35 87.2 Q122.55 83.55 124.05 76.5 125.55 69.45 130.6 66.0 135.6 62.55 140.95 61.0 146.25 59.35 154.85 62.05" fill="#d8d6b0" fill-rule="evenodd" stroke="none"/>
    <path d="M154.85 62.05 Q163.45 64.75 168.4 71.75 173.3 78.65 170.75 83.6 168.15 88.55 164.7 93.2 161.05 98.1 157.05 98.45 152.85 98.85 144.0 96.9 135.15 94.95 131.85 92.9 129.1 91.25 126.5 89.1 L124.35 87.2 Q122.55 83.55 124.05 76.5 125.55 69.45 130.6 66.0 135.6 62.55 140.95 61.0 146.25 59.35 154.85 62.05 Z" fill="none" stroke="#85846c" stroke-linecap="round" stroke-linejoin="round" stroke-width="1.0"/>
    <path d="M170.6 72.15 Q171.9 75.8 170.1 78.9 168.35 82.0 164.5 82.75 160.75 83.5 157.15 81.4 153.5 79.3 152.2 75.65 151.0 72.0 152.75 68.9 154.55 65.8 158.3 65.05 162.1 64.35 165.75 66.45 169.35 68.55 170.6 72.15" fill="#ecebd3" fill-rule="evenodd" stroke="none"/>
    <path d="M170.6 72.15 Q171.9 75.8 170.1 78.9 168.35 82.0 164.5 82.75 160.75 83.5 157.15 81.4 153.5 79.3 152.2 75.65 151.0 72.0 152.75 68.9 154.55 65.8 158.3 65.05 162.1 64.35 165.75 66.45 169.35 68.55 170.6 72.15 Z" fill="none" stroke="#85846c" stroke-linecap="round" stroke-linejoin="round" stroke-width="1.0"/>
    <path d="M169.15 31.05 Q171.7 27.9 173.45 27.5 175.4 27.05 180.4 28.7 185.15 30.15 185.95 31.05 186.45 31.65 187.25 35.75 188.15 40.85 188.15 45.95 188.15 61.15 179.85 67.65 L167.0 34.2 169.15 31.05" fill="#d8d6b0" fill-rule="evenodd" stroke="none"/>
    <path d="M169.15 31.05 Q171.7 27.9 173.45 27.5 175.4 27.05 180.4 28.7 185.15 30.15 185.95 31.05 186.45 31.65 187.25 35.75 188.15 40.85 188.15 45.95 188.15 61.15 179.85 67.65 L167.0 34.2 169.15 31.05 Z" fill="none" stroke="#85846c" stroke-linecap="round" stroke-linejoin="round" stroke-width="1.0"/>
    <path d="M178.9 40.5 L181.75 37.15 Q184.6 33.45 184.6 31.6" fill="none" stroke="#afae8a" stroke-linecap="round" stroke-linejoin="round" stroke-width="1.0"/>
    <path d="M172.35 50.15 L161.45 37.95 163.45 35.2 Q165.55 32.4 166.1 32.4 166.7 32.4 174.05 35.3 L181.2 38.15 172.35 50.15 181.2 38.15 181.25 38.2 182.9 42.6 Q184.5 48.1 184.25 53.65 184.05 59.2 181.95 62.6 L179.9 64.9 176.5 61.45 176.25 54.45 172.35 50.15" fill="#af984e" fill-rule="evenodd" stroke="none"/>
    <path d="M181.2 38.15 L174.05 35.3 Q166.7 32.4 166.1 32.4 165.55 32.4 163.45 35.2 L161.45 37.95 172.35 50.15 181.2 38.15 181.25 38.2 182.9 42.6 Q184.5 48.1 184.25 53.65 184.05 59.2 181.95 62.6 L179.9 64.9 176.5 61.45 176.25 54.45 172.35 50.15" fill="none" stroke="#7b673f" stroke-linecap="round" stroke-linejoin="round" stroke-width="1.0"/>
    <path d="M177.15 44.25 Q180.0 51.35 178.85 58.2 178.25 61.65 177.05 63.65 L171.95 59.55 161.45 37.95 177.15 44.25" fill="#8c793c" fill-rule="evenodd" stroke="none"/>
    <path d="M177.15 44.25 L161.45 37.95 171.95 59.55 177.05 63.65 Q178.25 61.65 178.85 58.2 180.0 51.35 177.15 44.25 Z" fill="none" stroke="#7b673f" stroke-linecap="round" stroke-linejoin="round" stroke-width="1.0"/>
    <path d="M171.65 45.85 Q174.35 47.65 174.7 48.9 175.2 50.65 173.4 58.35 L162.45 49.55 164.45 46.95 Q166.75 44.25 167.7 44.15 168.95 44.05 171.65 45.85" fill="#af984e" fill-rule="evenodd" stroke="none"/>
    <path d="M171.65 45.85 Q174.35 47.65 174.7 48.9 175.2 50.65 173.4 58.35 L162.45 49.55 164.45 46.95 Q166.75 44.25 167.7 44.15 168.95 44.05 171.65 45.85 Z" fill="none" stroke="#7b673f" stroke-linecap="round" stroke-linejoin="round" stroke-width="1.0"/>
    <path d="M153.65 87.4 L153.4 89.55 137.25 83.15 137.05 83.0 Q135.8 86.3 133.95 89.55 L130.85 94.0 Q128.8 92.75 127.9 91.4 L130.75 86.7 Q132.55 83.5 133.55 80.7 L133.6 80.7 Q145.35 83.5 153.65 87.4 M152.4 93.85 Q151.05 98.55 149.3 99.6 L140.0 97.55 135.75 96.25 137.25 94.85 Q140.9 92.15 144.55 91.65 148.2 91.15 151.2 93.0 L152.4 93.85 M133.6 80.7 L137.05 83.0 133.6 80.7" fill="#afad90" fill-rule="evenodd" stroke="none"/>
    <path d="M133.55 80.7 L134.85 76.45 143.3 78.9 Q151.95 81.8 153.05 83.65 153.75 84.9 153.65 87.4 145.35 83.5 133.6 80.7 L133.55 80.7" fill="#f5f4e8" fill-rule="evenodd" stroke="none"/>
    <path d="M153.4 89.55 L152.85 92.15 152.4 93.85 151.2 93.0 Q148.2 91.15 144.55 91.65 140.9 92.15 137.25 94.85 L135.75 96.25 Q132.75 95.2 130.85 94.0 L133.95 89.55 Q135.8 86.3 137.05 83.0 L137.25 83.15 153.4 89.55" fill="#6b6a56" fill-rule="evenodd" stroke="none"/>
    <path d="M133.55 80.7 L134.85 76.45 143.3 78.9 Q151.95 81.8 153.05 83.65 153.75 84.9 153.65 87.4 L153.4 89.55 152.85 92.15 152.4 93.85 Q151.05 98.55 149.3 99.6 L140.0 97.55 135.75 96.25 Q132.75 95.2 130.85 94.0 128.8 92.75 127.9 91.4 L130.75 86.7 Q132.55 83.5 133.55 80.7 L133.6 80.7 Q145.35 83.5 153.65 87.4 M137.05 83.0 L137.25 83.15 153.4 89.55 M130.85 94.0 L133.95 89.55 Q135.8 86.3 137.05 83.0 L133.6 80.7 M152.4 93.85 L151.2 93.0 Q148.2 91.15 144.55 91.65 140.9 92.15 137.25 94.85 L135.75 96.25" fill="none" stroke="#85846c" stroke-linecap="round" stroke-linejoin="round" stroke-width="1.0"/>
    <path d="M150.6 51.15 L150.4 51.05 143.5 51.35 Q138.0 51.95 132.85 57.55 L127.0 64.0 Q129.65 58.5 132.15 54.15 135.4 48.55 139.85 46.75 144.85 44.7 151.3 44.75 157.7 44.8 165.65 48.45 173.6 52.1 179.1 61.15 184.6 70.2 184.25 79.65 183.85 89.1 181.2 93.45 L179.35 95.65 178.45 96.25 Q173.4 99.1 168.05 97.85 L163.65 96.0 166.75 89.65 171.1 78.25 Q172.0 77.4 172.35 74.9 172.65 72.8 171.8 67.85 170.9 62.6 169.85 60.95 168.9 59.5 166.2 58.35 L163.6 57.55 156.65 62.05 147.4 60.45 145.15 56.8 Q149.45 54.25 151.45 51.15 L150.6 51.15 150.6 51.1 150.6 51.15 150.6 51.1 150.6 51.15" fill="#bfbd9c" fill-rule="evenodd" stroke="none"/>
    <path d="M150.6 51.15 L151.45 51.15 Q149.45 54.25 145.15 56.8 L147.4 60.45 156.65 62.05 163.6 57.55 166.2 58.35 Q168.9 59.5 169.85 60.95 170.9 62.6 171.8 67.85 172.65 72.8 172.35 74.9 172.0 77.4 171.1 78.25 L166.75 89.65 163.65 96.0 168.05 97.85 Q173.4 99.1 178.45 96.25 L179.35 95.65 181.2 93.45 Q183.85 89.1 184.25 79.65 184.6 70.2 179.1 61.15 173.6 52.1 165.65 48.45 157.7 44.8 151.3 44.75 144.85 44.7 139.85 46.75 135.4 48.55 132.15 54.15 129.65 58.5 127.0 64.0 L132.85 57.55 Q138.0 51.95 143.5 51.35 L150.4 51.05 150.6 51.15 150.6 51.1 150.6 51.15 Z" fill="none" stroke="#85846c" stroke-linecap="round" stroke-linejoin="round" stroke-width="1.0"/>
    <path d="M144.75 60.15 Q147.1 62.2 147.1 65.0 147.1 67.85 144.75 69.9 142.4 71.95 139.1 71.95 135.75 71.95 133.4 69.9 131.1 67.85 131.1 65.0 131.1 62.2 133.4 60.15 135.75 58.15 139.1 58.15 142.4 58.15 144.75 60.15" fill="#ecebd3" fill-rule="evenodd" stroke="none"/>
    <path d="M144.75 60.15 Q147.1 62.2 147.1 65.0 147.1 67.85 144.75 69.9 142.4 71.95 139.1 71.95 135.75 71.95 133.4 69.9 131.1 67.85 131.1 65.0 131.1 62.2 133.4 60.15 135.75 58.15 139.1 58.15 142.4 58.15 144.75 60.15 Z" fill="none" stroke="#85846c" stroke-linecap="round" stroke-linejoin="round" stroke-width="1.0"/>
    <path d="M163.6 72.05 L161.0 72.15 Q159.6 71.75 158.85 70.75 158.1 69.75 158.35 68.65 158.65 67.65 159.8 67.1 L162.35 67.0 Q163.8 67.35 164.55 68.4 165.3 69.45 165.0 70.45 164.75 71.55 163.6 72.05" fill="#85846c" fill-rule="evenodd" stroke="none"/>
    <path d="M141.05 63.25 Q140.2 63.9 139.0 63.9 137.8 63.9 137.0 63.25 136.2 62.6 136.2 61.7 136.2 60.85 137.0 60.15 137.8 59.5 139.0 59.5 140.2 59.5 141.05 60.15 141.85 60.85 141.85 61.7 141.85 62.6 141.05 63.25" fill="#85846c" fill-rule="evenodd" stroke="none"/>
    <path d="M62.3 35.0 Q65.25 32.05 66.4 33.0 67.65 34.1 65.4 35.6 63.4 36.9 60.85 37.25 60.8 36.45 62.3 35.0" fill="#8a7345" fill-rule="evenodd" stroke="none"/>
    <path d="M73.0 62.0 L68.75 61.6 Q68.15 61.2 68.05 57.3 67.85 53.4 68.6 53.0 69.45 52.5 75.0 51.9 L81.3 51.25 Q82.1 51.3 82.5 54.6 82.75 57.85 82.45 59.3 82.2 60.6 79.4 61.3 L73.0 62.0" fill="#d8d6b0" fill-rule="evenodd" stroke="none"/>
    <path d="M73.0 62.0 L79.4 61.3 Q82.2 60.6 82.45 59.3 82.75 57.85 82.5 54.6 82.1 51.3 81.3 51.25 L75.0 51.9 Q69.45 52.5 68.6 53.0 67.85 53.4 68.05 57.3 68.15 61.2 68.75 61.6 L73.0 62.0 Z" fill="none" stroke="#85846c" stroke-linecap="round" stroke-linejoin="round" stroke-width="1.0"/>
    <path d="M71.5 53.0 L67.35 52.5 Q66.8 52.1 66.65 48.05 66.55 43.9 67.4 43.45 68.25 43.05 73.65 42.0 L79.95 41.0 Q80.75 41.05 81.05 45.0 81.35 48.95 81.05 50.4 80.8 51.7 77.9 52.4 L71.5 53.0" fill="#d8d6b0" fill-rule="evenodd" stroke="none"/>
    <path d="M71.5 53.0 L67.35 52.5 Q66.8 52.1 66.65 48.05 66.55 43.9 67.4 43.45 68.25 43.05 73.65 42.0 L79.95 41.0 Q80.75 41.05 81.05 45.0 81.35 48.95 81.05 50.4 80.8 51.7 77.9 52.4 L71.5 53.0 Z" fill="none" stroke="#85846c" stroke-linecap="round" stroke-linejoin="round" stroke-width="1.0"/>
    <path d="M40.85 61.1 L47.05 61.3 Q52.2 61.6 52.95 62.1 53.7 62.7 53.8 66.4 L53.95 72.25 53.95 72.55 Q51.2 73.7 47.8 73.85 L42.1 73.45 38.8 72.55 Q38.6 68.3 39.25 64.75 39.85 61.2 40.85 61.1" fill="#d8d6b0" fill-rule="evenodd" stroke="none"/>
    <path d="M40.85 61.1 Q39.85 61.2 39.25 64.75 38.6 68.3 38.8 72.55 L42.1 73.45 47.8 73.85 Q51.2 73.7 53.95 72.55 L53.95 72.25 53.8 66.4 Q53.7 62.7 52.95 62.1 52.2 61.6 47.05 61.3 L40.85 61.1 Z" fill="none" stroke="#85846c" stroke-linecap="round" stroke-linejoin="round" stroke-width="1.0"/>
    <path d="M49.45 62.75 Q46.65 63.05 43.0 62.7 39.3 62.25 38.8 61.75 38.3 61.3 38.4 57.35 38.45 53.5 39.25 53.15 L45.7 52.8 52.0 52.9 Q52.8 53.1 52.95 56.4 53.0 59.7 52.6 61.1 52.2 62.4 49.45 62.75" fill="#d8d6b0" fill-rule="evenodd" stroke="none"/>
    <path d="M49.45 62.75 Q52.2 62.4 52.6 61.1 53.0 59.7 52.95 56.4 52.8 53.1 52.0 52.9 L45.7 52.8 39.25 53.15 Q38.45 53.5 38.4 57.35 38.3 61.3 38.8 61.75 39.3 62.25 43.0 62.7 46.65 63.05 49.45 62.75 Z" fill="none" stroke="#85846c" stroke-linecap="round" stroke-linejoin="round" stroke-width="1.0"/>
    <path d="M53.15 52.6 Q53.65 52.15 53.45 48.05 53.25 43.9 52.4 43.5 L46.1 42.85 39.8 42.55 Q39.0 42.7 39.0 46.7 38.95 50.7 39.35 52.05 39.75 53.4 42.65 53.7 45.55 54.0 49.1 53.55 52.6 53.05 53.15 52.6" fill="#d8d6b0" fill-rule="evenodd" stroke="none"/>
    <path d="M53.15 52.6 Q53.65 52.15 53.45 48.05 53.25 43.9 52.4 43.5 L46.1 42.85 39.8 42.55 Q39.0 42.7 39.0 46.7 38.95 50.7 39.35 52.05 39.75 53.4 42.65 53.7 45.55 54.0 49.1 53.55 52.6 53.05 53.15 52.6 Z" fill="none" stroke="#85846c" stroke-linecap="round" stroke-linejoin="round" stroke-width="1.0"/>
    <path d="M75.95 31.5 Q69.2 33.25 59.45 34.2 49.7 35.1 42.6 34.65 35.55 34.2 35.3 32.55 35.05 30.95 41.8 29.15 48.6 27.4 58.35 26.5 L75.15 26.0 Q82.25 26.5 82.5 28.1 82.75 29.75 75.95 31.5" fill="#ecebd3" fill-rule="evenodd" stroke="none"/>
    <path d="M75.95 31.5 Q69.2 33.25 59.45 34.2 49.7 35.1 42.6 34.65 35.55 34.2 35.3 32.55 35.05 30.95 41.8 29.15 48.6 27.4 58.35 26.5 L75.15 26.0 Q82.25 26.5 82.5 28.1 82.75 29.75 75.95 31.5 Z" fill="none" stroke="#85846c" stroke-linecap="round" stroke-linejoin="round" stroke-width="1.0"/>
    <path d="M87.6 76.55 Q86.65 77.9 80.4 79.15 73.0 80.8 62.3 81.5 51.55 82.1 43.8 81.45 36.75 80.9 35.95 79.45" fill="none" stroke="#85846c" stroke-linecap="round" stroke-linejoin="round" stroke-width="1.0"/>
    <path d="M66.15 86.75 Q67.15 88.75 67.4 91.4 55.45 94.2 47.6 94.8 L33.95 94.4 28.95 93.0 Q31.6 87.75 32.7 84.55 33.9 81.1 42.4 79.05 L50.25 78.6 Q56.2 78.9 60.3 80.9 64.1 82.7 66.15 86.75" fill="#d8d6b0" fill-rule="evenodd" stroke="none"/>
    <path d="M66.15 86.75 Q64.1 82.7 60.3 80.9 56.2 78.9 50.25 78.6 L42.4 79.05 Q33.9 81.1 32.7 84.55 31.6 87.75 28.95 93.0 L33.95 94.4 47.6 94.8 Q55.45 94.2 67.4 91.4 67.15 88.75 66.15 86.75 Z" fill="none" stroke="#85846c" stroke-linecap="round" stroke-linejoin="round" stroke-width="1.0"/>
    <path d="M69.6 90.4 L69.0 94.7 59.1 96.15 42.25 97.05 30.4 95.7 25.4 94.95 26.25 93.4 Q29.9 92.3 31.85 92.2 L40.85 92.95 Q46.7 93.65 50.55 93.1 L61.6 91.25 Q68.15 90.1 69.6 90.4" fill="#81be6a" fill-rule="evenodd" stroke="none"/>
    <path d="M26.25 93.4 Q29.9 92.3 31.85 92.2 L40.85 92.95 Q46.7 93.65 50.55 93.1 L61.6 91.25 Q68.15 90.1 69.6 90.4" fill="none" stroke="#628e51" stroke-linecap="round" stroke-linejoin="round" stroke-width="1.0"/>
    <path d="M40.55 85.35 L42.05 86.55 Q44.0 87.75 46.6 87.8 47.95 87.85 49.55 86.9 L52.65 85.05 Q56.95 82.45 61.65 83.55" fill="none" stroke="#afae8a" stroke-linecap="round" stroke-linejoin="round" stroke-width="1.0"/>
    <path d="M32.3 94.75 Q35.45 89.85 40.6 90.45 45.8 91.0 48.5 94.4 L51.75 99.7 30.1 99.7 32.3 94.75" fill="#bfbd9c" fill-rule="evenodd" stroke="none"/>
    <path d="M32.3 94.75 L30.1 99.7 51.75 99.7 48.5 94.4 Q45.8 91.0 40.6 90.45 35.45 89.85 32.3 94.75 Z" fill="none" stroke="#85846c" stroke-linecap="round" stroke-linejoin="round" stroke-width="1.0"/>
    <path d="M122.35 95.65 L97.9 96.65 94.5 91.4 98.65 88.75 Q103.4 86.0 106.35 85.65 109.35 85.3 114.45 88.25 117.55 90.0 120.3 92.2 121.85 93.5 122.35 95.65" fill="#bfbd9c" fill-rule="evenodd" stroke="none"/>
    <path d="M122.35 95.65 L97.9 96.65 94.5 91.4 98.65 88.75 Q103.4 86.0 106.35 85.65 109.35 85.3 114.45 88.25 117.55 90.0 120.3 92.2 121.85 93.5 122.35 95.65 Z" fill="none" stroke="#85846c" stroke-linecap="round" stroke-linejoin="round" stroke-width="1.0"/>
    <path d="M103.2 99.55 L65.8 99.55 72.45 94.0 Q77.3 91.05 80.25 90.9 L85.35 91.3 86.7 91.55 Q90.9 89.05 92.9 89.05 95.05 89.05 98.55 91.95 100.25 93.35 101.6 94.8 L103.2 99.55" fill="#d8d6b0" fill-rule="evenodd" stroke="none"/>
    <path d="M103.2 99.55 L65.8 99.55 72.45 94.0 Q77.3 91.05 80.25 90.9 L85.35 91.3 86.7 91.55 Q90.9 89.05 92.9 89.05 95.05 89.05 98.55 91.95 100.25 93.35 101.6 94.8 L103.2 99.55 Z" fill="none" stroke="#85846c" stroke-linecap="round" stroke-linejoin="round" stroke-width="1.0"/>
    <path d="M83.05 94.7 L89.25 95.6 Q95.35 90.5 98.7 92.15" fill="none" stroke="#afae8a" stroke-linecap="round" stroke-linejoin="round" stroke-width="1.0"/>
    <path d="M145.4 56.75 L155.25 60.7 155.3 60.7 163.45 54.7 Q171.0 58.0 172.9 63.0 174.7 68.05 174.25 73.8 173.85 79.5 172.95 79.85 L169.4 80.05 168.4 79.75 Q169.25 77.75 170.1 74.2 170.95 70.65 169.6 66.6 168.15 62.5 163.75 60.0 L163.6 59.9 155.95 64.75 145.95 60.4 145.4 56.75 M150.05 53.25 L140.5 53.55 Q135.75 55.0 133.85 58.2 L130.8 63.1 Q129.65 64.75 127.25 65.4 L125.05 65.75 125.05 65.8 121.05 62.35 121.05 62.3 123.6 62.8 Q126.45 63.0 128.15 61.35 L133.0 55.55 Q136.65 50.85 142.5 50.05 148.4 49.3 151.25 50.0 152.65 50.4 152.9 50.9 L150.05 53.25 M155.95 64.75 L155.3 60.7 155.95 64.75 M163.45 54.7 L163.75 60.0 163.45 54.7" fill="#9f9d7e" fill-rule="evenodd" stroke="none"/>
    <path d="M145.4 56.75 L155.25 60.7 155.3 60.7 163.45 54.7 Q171.0 58.0 172.9 63.0 174.7 68.05 174.25 73.8 173.85 79.5 172.95 79.85 L169.4 80.05 168.4 79.75 Q169.25 77.75 170.1 74.2 170.95 70.65 169.6 66.6 168.15 62.5 163.75 60.0 L163.6 59.9 155.95 64.75 145.95 60.4 145.4 56.75 150.05 53.25 140.5 53.55 Q135.75 55.0 133.85 58.2 L130.8 63.1 Q129.65 64.75 127.25 65.4 L125.05 65.75 125.05 65.8 M121.05 62.35 L121.05 62.3 123.6 62.8 Q126.45 63.0 128.15 61.35 L133.0 55.55 Q136.65 50.85 142.5 50.05 148.4 49.3 151.25 50.0 152.65 50.4 152.9 50.9 L150.05 53.25 M163.75 60.0 L163.45 54.7 M155.3 60.7 L155.95 64.75" fill="none" stroke="#85846c" stroke-linecap="round" stroke-linejoin="round" stroke-width="1.0"/>
    <path d="M170.9 84.45 Q169.2 89.95 166.5 93.6 163.85 97.3 161.1 97.2 L158.85 96.4 Q160.1 94.65 161.4 91.7 164.0 85.7 164.5 79.55 L172.0 79.65 170.9 84.45" fill="#afad90" fill-rule="evenodd" stroke="none"/>
    <path d="M170.9 84.45 Q169.2 89.95 166.5 93.6 163.85 97.3 161.1 97.2 L158.85 96.4 Q160.1 94.65 161.4 91.7 164.0 85.7 164.5 79.55 L172.0 79.65 170.9 84.45 Z" fill="none" stroke="#85846c" stroke-linecap="round" stroke-linejoin="round" stroke-width="1.0"/>
    <path d="M121.4 85.6 L117.65 84.4 Q117.0 81.35 117.1 77.15 117.25 68.6 121.05 62.35 L125.05 65.8 Q122.65 72.25 121.8 79.55 121.35 83.25 121.4 85.6" fill="#bfbd9c" fill-rule="evenodd" stroke="none"/>
    <path d="M121.4 85.6 L117.65 84.4 Q117.0 81.35 117.1 77.15 117.25 68.6 121.05 62.35 L125.05 65.8 Q122.65 72.25 121.8 79.55 121.35 83.25 121.4 85.6 Z" fill="none" stroke="#85846c" stroke-linecap="round" stroke-linejoin="round" stroke-width="1.0"/>
    <path d="M114.2 81.4 L115.05 81.0 117.65 80.65 Q122.05 80.6 127.4 84.3 135.85 90.3 139.85 92.45 146.65 96.15 151.65 96.0 L157.85 95.15 165.05 93.7 Q174.65 92.0 182.35 94.2 L186.3 95.35 186.3 98.45 Q178.55 100.3 169.55 101.75 148.05 105.25 138.95 102.75 129.9 100.25 121.15 90.6 118.4 87.55 116.05 84.2 L114.2 81.4" fill="#81be6a" fill-rule="evenodd" stroke="none"/>
    <path d="M114.2 81.4 L115.05 81.0 117.65 80.65 Q122.05 80.6 127.4 84.3 135.85 90.3 139.85 92.45 146.65 96.15 151.65 96.0 L157.85 95.15 165.05 93.7 Q174.65 92.0 182.35 94.2 L186.3 95.35" fill="none" stroke="#628e51" stroke-linecap="round" stroke-linejoin="round" stroke-width="1.0"/>
    <path d="M125.65 15.0 L117.75 28.5 105.4 21.95 118.05 0.0 118.95 1.15 120.45 2.5 Q121.2 2.75 121.9 3.9 122.65 5.1 122.45 5.9 L121.5 8.85 Q120.9 11.1 121.65 11.45 L124.1 13.15 Q125.6 14.45 125.65 15.0" fill="#ecebd3" fill-rule="evenodd" stroke="none"/>
    <path d="M125.65 15.0 L117.75 28.5 105.4 21.95 118.05 0.0 118.95 1.15 120.45 2.5 Q121.2 2.75 121.9 3.9 122.65 5.1 122.45 5.9 L121.5 8.85 Q120.9 11.1 121.65 11.45 L124.1 13.15 Q125.6 14.45 125.65 15.0 Z" fill="none" stroke="#85846c" stroke-linecap="round" stroke-linejoin="round" stroke-width="1.0"/>
    <path d="M110.7 26.95 L120.55 11.05" fill="none" stroke="#afae8a" stroke-linecap="round" stroke-linejoin="round" stroke-width="1.0"/>
    <path d="M104.85 9.3 Q105.25 9.6 104.5 13.45 L103.7 17.8 Q103.9 18.45 111.85 24.1 118.75 29.0 121.25 29.65 122.35 29.95 125.3 26.85 127.9 24.05 127.95 24.35 128.05 25.15 125.5 30.5 122.85 35.9 122.0 36.35 121.3 36.75 116.95 34.35 L109.15 29.95 Q105.6 28.0 101.95 25.0 98.4 22.05 97.8 20.65 97.25 19.4 100.75 14.1 104.2 8.8 104.85 9.3" fill="#af984e" fill-rule="evenodd" stroke="none"/>
    <path d="M104.85 9.3 Q104.2 8.8 100.75 14.1 97.25 19.4 97.8 20.65 98.4 22.05 101.95 25.0 105.6 28.0 109.15 29.95 L116.95 34.35 Q121.3 36.75 122.0 36.35 122.85 35.9 125.5 30.5 128.05 25.15 127.95 24.35 127.9 24.05 125.3 26.85 122.35 29.95 121.25 29.65 118.75 29.0 111.85 24.1 103.9 18.45 103.7 17.8 L104.5 13.45 Q105.25 9.6 104.85 9.3 Z" fill="none" stroke="#7b673f" stroke-linecap="round" stroke-linejoin="round" stroke-width="1.0"/>
    <path d="M97.4 66.1 L109.1 65.2 110.6 78.9 Q108.1 80.05 102.5 80.1 L97.4 79.95 97.4 66.1" fill="#c6c4a0" fill-rule="evenodd" stroke="none"/>
    <path d="M97.4 66.1 L97.4 79.95 102.5 80.1 Q108.1 80.05 110.6 78.9 L109.1 65.2 97.4 66.1 Z" fill="none" stroke="#85846c" stroke-linecap="round" stroke-linejoin="round" stroke-width="1.0"/>
    <path d="M106.1 39.25 L106.7 42.35 106.7 42.4 110.85 66.1 Q110.2 66.6 109.0 67.1 106.6 68.1 103.9 68.2 101.2 68.3 98.5 67.45 L96.4 66.65 96.15 51.9 106.1 39.25" fill="#d8d6b0" fill-rule="evenodd" stroke="none"/>
    <path d="M106.1 39.25 L96.15 51.9 96.4 66.65 98.5 67.45 Q101.2 68.3 103.9 68.2 106.6 68.1 109.0 67.1 110.2 66.6 110.85 66.1 L106.7 42.4 106.7 42.35 106.1 39.25 Z" fill="none" stroke="#85846c" stroke-linecap="round" stroke-linejoin="round" stroke-width="1.0"/>
    <path d="M113.15 29.5 L96.5 59.85 90.2 56.35 107.15 25.6 Q111.55 25.7 113.15 29.5" fill="#8c793c" fill-rule="evenodd" stroke="none"/>
    <path d="M113.15 29.5 L96.5 59.85 90.2 56.35 107.15 25.6 Q111.55 25.7 113.15 29.5 Z" fill="none" stroke="#7b673f" stroke-linecap="round" stroke-linejoin="round" stroke-width="1.0"/>
    <path d="M96.75 61.45 Q103.55 63.55 109.5 60.8" fill="none" stroke="#85846c" stroke-linecap="round" stroke-linejoin="round" stroke-width="1.0"/>
    <path d="M90.1 61.5 Q88.6 60.0 88.6 57.85 88.6 55.7 90.1 54.2 91.6 52.7 93.7 52.7 95.9 52.7 97.35 54.2 98.85 55.7 98.85 57.85 98.85 60.0 97.35 61.5 95.9 63.0 93.7 63.0 91.6 63.0 90.1 61.5" fill="#af984e" fill-rule="evenodd" stroke="none"/>
    <path d="M90.1 61.5 Q88.6 60.0 88.6 57.85 88.6 55.7 90.1 54.2 91.6 52.7 93.7 52.7 95.9 52.7 97.35 54.2 98.85 55.7 98.85 57.85 98.85 60.0 97.35 61.5 95.9 63.0 93.7 63.0 91.6 63.0 90.1 61.5 Z" fill="none" stroke="#7b673f" stroke-linecap="round" stroke-linejoin="round" stroke-width="1.0"/>
    <path d="M96.25 32.6 Q97.5 30.1 99.3 28.9 101.1 27.65 103.1 28.4 105.05 29.15 106.85 31.45 108.65 33.8 108.0 34.75 107.5 35.65 104.25 35.6 L101.05 35.3 96.9 38.8 Q96.45 38.7 95.75 36.9 94.95 35.1 96.25 32.6" fill="#d8d6b0" fill-rule="evenodd" stroke="none"/>
    <path d="M96.25 32.6 Q97.5 30.1 99.3 28.9 101.1 27.65 103.1 28.4 105.05 29.15 106.85 31.45 108.65 33.8 108.0 34.75 107.5 35.65 104.25 35.6 L101.05 35.3 96.9 38.8 Q96.45 38.7 95.75 36.9 94.95 35.1 96.25 32.6 Z" fill="none" stroke="#85846c" stroke-linecap="round" stroke-linejoin="round" stroke-width="1.0"/>
    <path d="M94.85 35.1 Q96.65 33.3 98.35 32.7 L101.15 32.45 Q102.65 32.6 104.0 33.9 105.45 35.4 105.05 36.9 104.65 38.45 103.05 39.5 101.7 40.4 100.2 40.55 L93.05 41.6 Q92.85 40.65 92.95 39.4 93.2 36.8 94.85 35.1" fill="#d8d6b0" fill-rule="evenodd" stroke="none"/>
    <path d="M94.85 35.1 Q96.65 33.3 98.35 32.7 L101.15 32.45 Q102.65 32.6 104.0 33.9 105.45 35.4 105.05 36.9 104.65 38.45 103.05 39.5 101.7 40.4 100.2 40.55 L93.05 41.6 Q92.85 40.65 92.95 39.4 93.2 36.8 94.85 35.1 Z" fill="none" stroke="#85846c" stroke-linecap="round" stroke-linejoin="round" stroke-width="1.0"/>
    <path d="M108.1 41.35 L106.45 41.25 105.3 40.95 104.9 40.75 Q103.55 40.0 103.35 38.5 103.0 36.3 104.85 35.05 107.0 33.5 111.2 34.7 115.1 35.85 114.85 39.1 114.6 42.35 112.25 46.15 110.75 48.5 107.75 48.7 L105.7 48.65 102.95 48.0 106.65 41.35 106.75 41.35 108.1 41.35 109.45 41.35 108.1 41.35" fill="#d8d6b0" fill-rule="evenodd" stroke="none"/>
    <path d="M105.7 48.65 L107.75 48.7 Q110.75 48.5 112.25 46.15 114.6 42.35 114.85 39.1 115.1 35.85 111.2 34.7 107.0 33.5 104.85 35.05 103.0 36.3 103.35 38.5 103.55 40.0 104.9 40.75 L105.3 40.95 106.45 41.25 108.1 41.35 109.45 41.35 M106.75 41.35 L106.65 41.35" fill="none" stroke="#85846c" stroke-linecap="round" stroke-linejoin="round" stroke-width="1.0"/>
    <path d="M106.65 41.35 L102.95 48.0" fill="none" stroke="#7b673f" stroke-linecap="round" stroke-linejoin="round" stroke-width="1.0"/>
    <path d="M94.4 48.95 Q93.35 48.45 92.65 47.5 91.25 45.65 91.35 43.35 91.45 40.85 94.05 39.3 96.4 37.95 98.75 38.1 100.75 38.2 101.95 38.95 103.05 39.6 103.15 40.65 103.25 41.7 102.35 42.65 101.45 43.55 100.1 43.85 L97.35 44.35 96.7 44.7 94.4 48.95" fill="#d8d6b0" fill-rule="evenodd" stroke="none"/>
    <path d="M94.4 48.95 Q93.35 48.45 92.65 47.5 91.25 45.65 91.35 43.35 91.45 40.85 94.05 39.3 96.4 37.95 98.75 38.1 100.75 38.2 101.95 38.95 103.05 39.6 103.15 40.65 103.25 41.7 102.35 42.65 101.45 43.55 100.1 43.85 L97.35 44.35 96.7 44.7 94.4 48.95 Z" fill="none" stroke="#85846c" stroke-linecap="round" stroke-linejoin="round" stroke-width="1.0"/>
    <path d="M93.1 79.7 L96.8 79.2 103.45 79.6 Q107.65 79.2 109.8 78.4 L113.4 78.25 111.6 83.55 94.75 84.05 93.1 79.7" fill="#81be6a" fill-rule="evenodd" stroke="none"/>
    <path d="M113.4 78.25 L109.8 78.4 Q107.65 79.2 103.45 79.6 L96.8 79.2 93.1 79.7" fill="none" stroke="#628e51" stroke-linecap="round" stroke-linejoin="round" stroke-width="1.0"/>
    <path d="M63.7 98.5 Q67.75 97.7 75.7 98.5 83.65 99.3 91.7 98.75 100.95 98.05 102.35 97.0 L101.75 95.2 115.0 94.5 Q120.65 94.6 127.5 97.25 L107.1 105.6 62.15 101.4 63.7 98.5" fill="#81be6a" fill-rule="evenodd" stroke="none"/>
    <path d="M127.5 97.25 Q120.65 94.6 115.0 94.5 L101.75 95.2 102.35 97.0 Q100.95 98.05 91.7 98.75 83.65 99.3 75.7 98.5 67.75 97.7 63.7 98.5" fill="none" stroke="#628e51" stroke-linecap="round" stroke-linejoin="round" stroke-width="1.0"/>
    <path d="M29.1 98.35 Q37.05 98.65 42.95 97.35 48.85 96.0 51.6 96.9 L53.45 102.05 37.55 102.5 Q28.2 102.45 29.1 98.35" fill="#81be6a" fill-rule="evenodd" stroke="none"/>
    <path d="M29.1 98.35 Q37.05 98.65 42.95 97.35 48.85 96.0 51.6 96.9" fill="none" stroke="#628e51" stroke-linecap="round" stroke-linejoin="round" stroke-width="1.0"/>
    <path d="M41.9 53.95 Q41.25 58.25 41.9 62.5 M49.05 53.55 Q49.7 58.0 48.5 62.4 M49.75 63.1 Q51.05 67.35 50.05 73.6 M73.4 62.35 Q73.05 66.85 73.35 71.55 M79.8 61.65 Q80.7 65.75 80.8 70.9 M72.3 52.95 Q71.55 57.15 72.3 61.5 M78.75 52.5 Q79.55 56.9 79.15 61.3 M43.4 46.7 Q42.5 50.0 43.4 53.85 M50.3 46.3 Q50.45 49.65 49.9 53.5 M43.35 63.1 Q42.15 67.7 42.4 73.2 M70.8 44.8 Q70.25 48.55 71.25 52.35 M77.05 43.35 Q78.15 47.95 77.65 52.45" fill="none" stroke="#afae8a" stroke-linecap="round" stroke-linejoin="round" stroke-width="1.0"/>
    <path d="M73.6 18.3 Q75.6 20.5 76.9 22.7 78.55 25.3 78.95 27.75 59.85 33.8 39.0 31.7 L39.05 30.85 Q39.15 28.55 39.75 26.45 41.1 21.05 45.5 17.05 51.55 11.5 59.8 11.85 68.0 12.25 73.6 18.3 M76.9 22.7 Q59.05 28.1 39.75 26.45 59.05 28.1 76.9 22.7" fill="#af984e" fill-rule="evenodd" stroke="none"/>
    <path d="M73.6 18.3 Q75.6 20.5 76.9 22.7 78.55 25.3 78.95 27.75 59.85 33.8 39.0 31.7 L39.05 30.85 Q39.15 28.55 39.75 26.45 41.1 21.05 45.5 17.05 51.55 11.5 59.8 11.85 68.0 12.25 73.6 18.3 M39.75 26.45 Q59.05 28.1 76.9 22.7" fill="none" stroke="#7b673f" stroke-linecap="round" stroke-linejoin="round" stroke-width="1.0"/>
    <path d="M68.4 32.55 L75.95 30.8 Q80.1 29.7 82.4 27.95 L83.75 36.2 84.35 39.95 Q82.25 41.65 74.75 43.6 67.2 45.4 54.8 46.1 42.4 46.85 35.6 44.7 L35.4 32.8 41.95 33.95 50.9 34.1 Q50.25 35.85 50.4 37.9 L50.55 38.5 Q43.1 40.0 35.65 40.25 47.65 42.8 60.35 41.7 73.1 40.6 81.75 36.95 L83.75 36.2 Q82.6 33.75 81.9 34.0 76.4 36.35 69.55 37.05 L69.45 36.4 Q69.3 34.25 68.4 32.55" fill="#d8d6b0" fill-rule="evenodd" stroke="none"/>
    <path d="M50.9 34.1 Q51.45 32.4 52.65 30.95 55.2 28.0 59.15 27.65 63.2 27.35 66.15 29.9 67.55 31.1 68.4 32.55 69.3 34.25 69.45 36.4 L69.55 37.05 Q65.15 38.35 60.5 38.75 55.6 39.15 50.55 38.5 L50.4 37.9 Q50.25 35.85 50.9 34.1" fill="#ecebd3" fill-rule="evenodd" stroke="none"/>
    <path d="M68.4 32.55 L75.95 30.8 Q80.1 29.7 82.4 27.95 L83.75 36.2 84.35 39.95 Q82.25 41.65 74.75 43.6 67.2 45.4 54.8 46.1 42.4 46.85 35.6 44.7 L35.4 32.8 41.95 33.95 50.9 34.1 Q51.45 32.4 52.65 30.95 55.2 28.0 59.15 27.65 63.2 27.35 66.15 29.9 67.55 31.1 68.4 32.55 69.3 34.25 69.45 36.4 L69.55 37.05 M50.55 38.5 L50.4 37.9 Q50.25 35.85 50.9 34.1" fill="none" stroke="#85846c" stroke-linecap="round" stroke-linejoin="round" stroke-width="1.0"/>
    <path d="M53.5 32.85 Q54.7 32.0 57.45 35.2 58.8 36.8 58.65 37.55 56.15 37.0 54.3 35.5 52.2 33.85 53.5 32.85 M60.85 32.15 Q61.0 34.7 60.0 37.3 59.3 36.9 58.8 34.75 57.75 30.35 59.15 29.8 60.7 29.2 60.85 32.15 M62.2 34.75 Q64.95 31.55 66.15 32.4 67.45 33.4 65.35 35.05 63.5 36.55 61.0 37.1 60.85 36.35 62.2 34.75" fill="#85846c" fill-rule="evenodd" stroke="none"/>
    <path d="M83.3 33.45 L83.75 36.2 81.75 36.95 Q73.1 40.6 60.35 41.7 47.6 42.8 35.55 40.25 L35.5 37.25 Q47.65 39.85 60.5 38.75 73.25 37.65 81.9 34.0 L83.3 33.45" fill="#af984e" fill-rule="evenodd" stroke="none"/>
    <path d="M83.3 33.45 L83.75 36.2 81.75 36.95 Q73.1 40.6 60.35 41.7 47.6 42.8 35.55 40.25 L35.5 37.25 Q47.65 39.85 60.5 38.75 73.25 37.65 81.9 34.0 L83.3 33.45 Z" fill="none" stroke="#7b673f" stroke-linecap="round" stroke-linejoin="round" stroke-width="1.0"/>
  </g>
</svg>
