<?xml version="1.0" encoding="UTF-8" standalone="no"?>
<svg
   xmlns:dc="http://purl.org/dc/elements/1.1/"
   xmlns:cc="http://creativecommons.org/ns#"
   xmlns:rdf="http://www.w3.org/1999/02/22-rdf-syntax-ns#"
   xmlns:svg="http://www.w3.org/2000/svg"
   xmlns="http://www.w3.org/2000/svg"
   xmlns:sodipodi="http://sodipodi.sourceforge.net/DTD/sodipodi-0.dtd"
   xmlns:inkscape="http://www.inkscape.org/namespaces/inkscape"
   height="118.9px"
   width="212.6px"
   version="1.1"
   id="svg466"
   sodipodi:docname="34_edit.svg"
   inkscape:version="1.0.1 (3bc2e813f5, 2020-09-07)">
  <metadata
     id="metadata472">
    <rdf:RDF>
      <cc:Work
         rdf:about="">
        <dc:format>image/svg+xml</dc:format>
        <dc:type
           rdf:resource="http://purl.org/dc/dcmitype/StillImage" />
        <dc:title></dc:title>
      </cc:Work>
    </rdf:RDF>
  </metadata>
  <defs
     id="defs470" />
  <sodipodi:namedview
     pagecolor="#ffffff"
     bordercolor="#666666"
     borderopacity="1"
     objecttolerance="10"
     gridtolerance="10"
     guidetolerance="10"
     inkscape:pageopacity="0"
     inkscape:pageshadow="2"
     inkscape:window-width="1920"
     inkscape:window-height="1017"
     id="namedview468"
     showgrid="false"
     inkscape:zoom="5.0235182"
     inkscape:cx="103.61252"
     inkscape:cy="59.450001"
     inkscape:window-x="-8"
     inkscape:window-y="-8"
     inkscape:window-maximized="1"
     inkscape:current-layer="svg466" />
  <path
     d="m 211.3,102.5 q 0.65,-1.95 -0.05,-3.15 L 209.9,97.4 q -0.6,-0.75 -0.8,-0.35 m -26.4,14.4 3.45,-0.9 q 1.65,-0.55 4,-0.85 l 4.4,-0.5 q 2.05,-0.25 4.3,-1.45 2.3,-1.15 3.75,-1.55 1.5,-0.4 3.2,-1.3 1.75,-0.9 3.6,-1.25 m -60.75,12.15 q 2.05,-0.8 4.5,-0.95 l 3.9,-0.05 3.35,-0.2 3.65,-0.4 3.7,-0.35 4.8,-0.65 4.45,-0.8 3.5,-0.55 M 5.45,94.35 2.75,96.4 Q 1.1,97.6 1,98.7 q -0.05,1.15 1.15,3.2 1.25,2.05 3.1,2.7 l 3.85,1.35 q 1.95,0.7 3.65,1.5 1.7,0.75 3.9,1.15 l 4.25,0.9 3.85,1.15 m 2.25,0.4 4.6,0.3 q 2,-0.05 3.8,0.95 1.85,1.05 3.75,0.6 l 3.9,-0.15 q 2.05,0.3 3.8,1 1.8,0.75 4.15,0.85 l 4.6,0.45 4.45,0.3 3.75,-0.25 q 1.55,-0.15 3.6,0.75 m 2.3,0.1 3.75,0.6 4.45,0.6 4.25,0.1 3.7,-0.1 4.25,0.05 3.8,0.05 m 24.45,0.05 q 2.45,-1 4.2,-0.9 l 3.8,0.35 4.45,0.15 4.05,-0.55 3.75,-0.2 3.6,0.6 q 1.5,0.35 4.15,-0.75 m -50.2,1.3 4.1,0.2 3.85,-0.2 h 4.25 l 4.1,-0.45 q 1.7,-0.45 3.7,0.5"
     fill="none"
     stroke="#d4b46e"
     stroke-linecap="round"
     stroke-linejoin="round"
     stroke-width="2"
     id="path242" />
  <path
     d="m 167.15,40.4 q 1.95,1.9 1.95,4.65 0,1.65 -0.7,2.95 2.35,0.15 4,1.85 1.95,1.9 1.95,4.65 l -0.05,1 1.4,-0.2 q 2.75,0 4.65,1.9 1.65,1.65 1.85,3.95 l 1.95,-0.3 q 2.7,0 4.6,1.9 1.75,1.75 1.9,4.15 3.6,0.15 6.15,2.75 2.85,2.8 2.85,6.8 0,4 -2.85,6.8 l -0.95,0.9 q 0.35,1 0.35,2.2 0,2.7 -1.95,4.55 -1.15,1.2 -2.6,1.65 1.35,1.75 1.35,4.05 0,2.7 -1.9,4.6 -1.9,1.9 -4.6,1.9 -2.7,0 -4.65,-1.9 -1,-1.05 -1.5,-2.35 l -146,-2.15 -0.9,1.05 q -1.9,1.95 -4.65,1.95 -2.65,0 -4.6,-1.95 -1.9,-1.85 -1.9,-4.6 l 0.1,-1.05 q -2.6,-0.05 -4.5,-1.95 -1.85,-1.9 -1.85,-4.6 0,-1.1 0.3,-2 -2.2,-0.7 -3.9,-2.4 -2.8,-2.8 -2.8,-6.8 0,-4 2.8,-6.8 L 13.7,66.5 q -1.1,-1.55 -1.1,-3.6 0,-2.65 1.9,-4.6 1.2,-1.15 2.7,-1.6 -0.85,-1.45 -0.85,-3.25 0,-2.7 1.85,-4.65 1.95,-1.85 4.6,-1.85 L 22.6,44.9 q 0,-4 2.75,-6.8 2.85,-2.8 6.8,-2.8 3.15,0 5.55,1.7 1.85,-1.6 4.35,-1.6 l 1.35,0.1 -0.05,-0.9 q 0,-3.95 2.8,-6.8 2.8,-2.75 6.8,-2.75 4.05,0 6.8,2.75 1.1,1.15 1.8,2.45 V 29.6 q 0,-3.95 2.75,-6.8 2.85,-2.75 6.8,-2.75 2.3,0 4.2,0.9 0.2,-2.25 1.85,-3.95 1.9,-1.85 4.6,-1.85 1.85,0 3.35,0.9 0.65,-1.8 2.1,-3.25 2.8,-2.75 6.75,-2.75 4.1,0 6.8,2.75 l 0.55,0.55 q 1.5,-0.85 3.3,-0.85 2.75,0 4.65,1.85 1.15,1.15 1.6,2.65 l 1.95,-0.3 q 2.7,0 4.6,1.9 1.9,1.9 1.9,4.65 v 0.3 q 2.4,0.15 4.15,1.85 l 0.85,1 h 0.3 q 1.55,0 2.85,0.6 2.75,-2.5 6.55,-2.5 4.05,0 6.8,2.75 l 0.35,0.35 q 1.6,-1.2 3.75,-1.2 2.7,0 4.6,1.9 l 0.85,1 q 2.35,-1.65 5.45,-1.65 4.05,0 6.8,2.8 2.85,2.8 2.85,6.8 l -0.15,1.85 1.85,1.3"
     fill="#4b8057"
     fill-rule="evenodd"
     stroke="none"
     id="path244"
     style="fill:#8a7345;fill-opacity:1" />
  <path
     d="m 167.15,40.4 q 1.95,1.9 1.95,4.65 0,1.65 -0.7,2.95 2.35,0.15 4,1.85 1.95,1.9 1.95,4.65 l -0.05,1 1.4,-0.2 q 2.75,0 4.65,1.9 1.65,1.65 1.85,3.95 l 1.95,-0.3 q 2.7,0 4.6,1.9 1.75,1.75 1.9,4.15 3.6,0.15 6.15,2.75 2.85,2.8 2.85,6.8 0,4 -2.85,6.8 l -0.95,0.9 q 0.35,1 0.35,2.2 0,2.7 -1.95,4.55 -1.15,1.2 -2.6,1.65 1.35,1.75 1.35,4.05 0,2.7 -1.9,4.6 -1.9,1.9 -4.6,1.9 -2.7,0 -4.65,-1.9 -1,-1.05 -1.5,-2.35 l -146,-2.15 -0.9,1.05 q -1.9,1.95 -4.65,1.95 -2.65,0 -4.6,-1.95 -1.9,-1.85 -1.9,-4.6 l 0.1,-1.05 q -2.6,-0.05 -4.5,-1.95 -1.85,-1.9 -1.85,-4.6 0,-1.1 0.3,-2 -2.2,-0.7 -3.9,-2.4 -2.8,-2.8 -2.8,-6.8 0,-4 2.8,-6.8 L 13.7,66.5 q -1.1,-1.55 -1.1,-3.6 0,-2.65 1.9,-4.6 1.2,-1.15 2.7,-1.6 -0.85,-1.45 -0.85,-3.25 0,-2.7 1.85,-4.65 1.95,-1.85 4.6,-1.85 L 22.6,44.9 q 0,-4 2.75,-6.8 2.85,-2.8 6.8,-2.8 3.15,0 5.55,1.7 1.85,-1.6 4.35,-1.6 l 1.35,0.1 -0.05,-0.9 q 0,-3.95 2.8,-6.8 2.8,-2.75 6.8,-2.75 4.05,0 6.8,2.75 1.1,1.15 1.8,2.45 V 29.6 q 0,-3.95 2.75,-6.8 2.85,-2.75 6.8,-2.75 2.3,0 4.2,0.9 0.2,-2.25 1.85,-3.95 1.9,-1.85 4.6,-1.85 1.85,0 3.35,0.9 0.65,-1.8 2.1,-3.25 2.8,-2.75 6.75,-2.75 4.1,0 6.8,2.75 l 0.55,0.55 q 1.5,-0.85 3.3,-0.85 2.75,0 4.65,1.85 1.15,1.15 1.6,2.65 l 1.95,-0.3 q 2.7,0 4.6,1.9 1.9,1.9 1.9,4.65 v 0.3 q 2.4,0.15 4.15,1.85 l 0.85,1 h 0.3 q 1.55,0 2.85,0.6 2.75,-2.5 6.55,-2.5 4.05,0 6.8,2.75 l 0.35,0.35 q 1.6,-1.2 3.75,-1.2 2.7,0 4.6,1.9 l 0.85,1 q 2.35,-1.65 5.45,-1.65 4.05,0 6.8,2.8 2.85,2.8 2.85,6.8 l -0.15,1.85 z"
     fill="none"
     stroke="#366240"
     stroke-linecap="round"
     stroke-linejoin="round"
     stroke-width="1"
     id="path246"
     style="stroke:#8a7345;stroke-opacity:1" />
  <path
     d="m 113.15,49.25 q 3.45,4 5.5,9.5 3.75,-5.85 8.75,-9.25 l -1.5,5.5 q -1.15,7.25 1,15.8 l -5.6,-0.35 0.05,2.15 -13.95,4.45 q 5,-14.75 5.75,-22.1 v -5.7 M 94.8,66.2 91.95,71.15 Q 89,77.9 100.4,79.35 L 76.05,82.4 77.7,79.9 75.75,79.75 q 0.85,-3.3 3.05,-7.55 4.45,-8.5 10.9,-12.9 l -1.5,5.5 q -0.4,2.45 -0.4,5.1 3.4,-2.4 7,-3.7 m 91.4,8.8 q -1,2.35 -1.7,5 4.15,-1.55 8.25,-1.9 l -4.05,4.05 q -4.6,5.7 -7,14.15 l -11.25,-7.4 2.1,-1.85 -2.25,-0.8 q 1.75,-3 4.95,-6.5 6.45,-7.05 13.85,-9.7 L 186.2,75 M 58.3,63.7 q -1.15,7.2 1,15.75 l -12.45,-0.7 0.35,1.25 -4.1,0.25 0.1,0.25 -4.3,1.45 2.55,2.3 -11.2,7.4 Q 27.8,83.2 23.2,77.5 l -4.05,-4.05 q 5.15,0.4 10.4,2.8 -0.8,-3.75 -2.25,-7 L 24.45,64.3 q 5.65,2 10.75,6.55 0.05,-3 -0.45,-5.85 l -1.5,-5.5 q 6.45,4.4 10.9,12.9 1.35,2.55 2.15,4.8 0.9,-2.8 2.6,-6.1 4.45,-8.5 10.9,-12.95 l -1.5,5.55"
     fill="#3c6244"
     fill-rule="evenodd"
     stroke="none"
     id="path248"
     style="fill:#75623b;fill-opacity:1" />
  <path
     d="m 130.9,75.6 q 2.95,5.5 13.1,3.4 10.05,-2.15 21.85,1.05 11.8,3.15 24.35,8.55 12.5,5.45 11.6,9.7 -0.9,4.3 -37.65,8.3 -36.75,4.05 -81.35,2.65 Q 38.2,107.9 15.75,101.4 -6.6,94.85 58.5,81.1 l 0.05,-0.05 3.4,-1.5 q 3.1,-1.45 52.3,-5.8 l 16.65,1.85"
     fill="#8bbe6a"
     fill-rule="evenodd"
     stroke="none"
     id="path250"
     style="fill:#d4b46e;fill-opacity:1" />
  <path
     d="m 130.9,75.6 q 2.95,5.5 13.1,3.4 10.05,-2.15 21.85,1.05 11.8,3.15 24.35,8.55 12.5,5.45 11.6,9.7 -0.9,4.3 -37.65,8.3 -36.75,4.05 -81.35,2.65 Q 38.2,107.9 15.75,101.4 -6.6,94.85 58.5,81.1 l 0.05,-0.05 3.4,-1.5 q 3.1,-1.45 52.3,-5.8 z"
     fill="none"
     stroke="#507442"
     stroke-linecap="round"
     stroke-linejoin="round"
     stroke-width="1"
     id="path252"
     style="stroke:#8a7345;stroke-opacity:1" />
  <path
     d="M 88.8,83 Q 86.5,84.65 78.15,86.35 69.9,88.05 56.3,88.4 42.65,88.75 35.25,86.45 l 0.15,-11.9 7.15,1.35 q 8.9,0.6 18.5,0.2 9.65,-0.35 18.85,-2.45 4.55,-1.05 7.1,-2.7 L 88.8,83"
     fill="#afad90"
     fill-rule="evenodd"
     stroke="none"
     id="path254"
     style="fill:#ab8e56;fill-opacity:1" />
  <path
     d="M 88.8,83 Q 86.5,84.65 78.15,86.35 69.9,88.05 56.3,88.4 42.65,88.75 35.25,86.45 l 0.15,-11.9 7.15,1.35 q 8.9,0.6 18.5,0.2 9.65,-0.35 18.85,-2.45 4.55,-1.05 7.1,-2.7 z"
     fill="none"
     stroke="#85846c"
     stroke-linecap="round"
     stroke-linejoin="round"
     stroke-width="1"
     id="path256"
     style="stroke:#8a7345;stroke-opacity:1" />
  <path
     d="m 63.85,87.2 7.5,-1.6 11.3,-2.45 q 4.2,-0.6 8.8,-0.15 l -1.2,5.55 -26.4,7.05 v -8.4"
     fill="#81be6a"
     fill-rule="evenodd"
     stroke="none"
     id="path258"
     style="fill:#d4b46e;fill-opacity:1" />
  <path
     d="m 91.45,83 q -4.6,-0.45 -8.8,0.15 l -11.3,2.45 -7.5,1.6"
     fill="none"
     stroke="#628e51"
     stroke-linecap="round"
     stroke-linejoin="round"
     stroke-width="1"
     id="path260"
     style="stroke:#8a7345;stroke-opacity:1" />
  <path
     d="m 79.9,74.3 q -7.4,1.6 -18.1,2.3 -10.75,0.65 -18.45,-0.05 -7.75,-0.6 -7.95,-2.2 -0.25,-1.65 7.2,-3.25 7.5,-1.6 18.2,-2.25 10.7,-0.65 18.4,-0.05 7.8,0.7 8.05,2.35 0.2,1.6 -7.35,3.15"
     fill="#ecebd3"
     fill-rule="evenodd"
     stroke="none"
     id="path262"
     style="fill:#d4b46e;fill-opacity:1" />
  <path
     d="m 79.9,74.3 q -7.4,1.6 -18.1,2.3 -10.75,0.65 -18.45,-0.05 -7.75,-0.6 -7.95,-2.2 -0.25,-1.65 7.2,-3.25 7.5,-1.6 18.2,-2.25 10.7,-0.65 18.4,-0.05 7.8,0.7 8.05,2.35 0.2,1.6 -7.35,3.15 z"
     fill="none"
     stroke="#85846c"
     stroke-linecap="round"
     stroke-linejoin="round"
     stroke-width="1"
     id="path264"
     style="stroke:#8a7345;stroke-opacity:1" />
  <path
     d="m 83.3,63.05 q 0.6,3.15 0.55,6.9 -1.1,0.85 -2.75,1.45 l -4.6,0.95 -7.75,-0.5 V 71.2 l 0.05,-5.3 q 0.2,-4.2 1.05,-4.6 l 6.05,-1 6.05,-0.55 q 0.75,0.1 1.35,3.3"
     fill="#d8d6b0"
     fill-rule="evenodd"
     stroke="none"
     id="path266"
     style="fill:#ab8e56;fill-opacity:1" />
  <path
     d="m 83.3,63.05 q 0.6,3.15 0.55,6.9 -1.1,0.85 -2.75,1.45 l -4.6,0.95 -7.75,-0.5 V 71.2 l 0.05,-5.3 q 0.2,-4.2 1.05,-4.6 l 6.05,-1 6.05,-0.55 q 0.75,0.1 1.35,3.3 z"
     fill="none"
     stroke="#85846c"
     stroke-linecap="round"
     stroke-linejoin="round"
     stroke-width="1"
     id="path268"
     style="stroke:#8a7345;stroke-opacity:1" />
  <path
     d="m 164.25,52.15 q 3.9,2.75 8,7.9 4.65,5.8 4.8,9.35 0.75,16.45 -2.7,20.55 -2.15,2.5 -4.95,4.65 L 167,96.25 155.05,98.5 127.75,87.45 120.35,85 q -0.15,-4.15 0.05,-8.65 0.35,-8.95 2.2,-10.45 0.9,-0.7 4.9,-3.25 3.05,-1.95 4.05,-3.4 2.3,-3.05 5.65,-6.05 4.8,-4.25 8.1,-4.3 l 9.65,0.4 q 6.2,0.75 9.3,2.85"
     fill="#6b6a56"
     fill-rule="evenodd"
     stroke="none"
     id="path270"
     style="fill:#75623b;fill-opacity:1" />
  <path
     d="m 164.25,52.15 q 3.9,2.75 8,7.9 4.65,5.8 4.8,9.35 0.75,16.45 -2.7,20.55 -2.15,2.5 -4.95,4.65 L 167,96.25 155.05,98.5 127.75,87.45 120.35,85 q -0.15,-4.15 0.05,-8.65 0.35,-8.95 2.2,-10.45 0.9,-0.7 4.9,-3.25 3.05,-1.95 4.05,-3.4 2.3,-3.05 5.65,-6.05 4.8,-4.25 8.1,-4.3 l 9.65,0.4 q 6.2,0.75 9.3,2.85 z"
     fill="none"
     stroke="#7b673f"
     stroke-linecap="round"
     stroke-linejoin="round"
     stroke-width="1"
     id="path272" />
  <path
     d="m 154.7,62.55 q 8.6,2.7 13.55,9.7 4.9,6.9 2.35,11.85 -2.6,4.95 -6.05,9.6 -3.65,4.9 -7.65,5.25 -4.2,0.4 -13.05,-1.55 -8.85,-1.95 -12.15,-4 -2.75,-1.65 -5.35,-3.8 l -2.15,-1.9 q -1.8,-3.65 -0.3,-10.7 1.5,-7.05 6.55,-10.5 5,-3.45 10.35,-5 5.3,-1.65 13.9,1.05"
     fill="#d8d6b0"
     fill-rule="evenodd"
     stroke="none"
     id="path274"
     style="fill:#bc9d5f;fill-opacity:1" />
  <path
     d="m 154.7,62.55 q 8.6,2.7 13.55,9.7 4.9,6.9 2.35,11.85 -2.6,4.95 -6.05,9.6 -3.65,4.9 -7.65,5.25 -4.2,0.4 -13.05,-1.55 -8.85,-1.95 -12.15,-4 -2.75,-1.65 -5.35,-3.8 l -2.15,-1.9 q -1.8,-3.65 -0.3,-10.7 1.5,-7.05 6.55,-10.5 5,-3.45 10.35,-5 5.3,-1.65 13.9,1.05 z"
     fill="none"
     stroke="#85846c"
     stroke-linecap="round"
     stroke-linejoin="round"
     stroke-width="1"
     id="path276"
     style="stroke:#8a7345;stroke-opacity:1" />
  <path
     d="m 170.45,72.65 q 1.3,3.65 -0.5,6.75 -1.75,3.1 -5.6,3.85 Q 160.6,84 157,81.9 q -3.65,-2.1 -4.95,-5.75 -1.2,-3.65 0.55,-6.75 1.8,-3.1 5.55,-3.85 3.8,-0.7 7.45,1.4 3.6,2.1 4.85,5.7"
     fill="#ecebd3"
     fill-rule="evenodd"
     stroke="none"
     id="path278"
     style="fill:#d4b46e;fill-opacity:1" />
  <path
     d="m 170.45,72.65 q 1.3,3.65 -0.5,6.75 -1.75,3.1 -5.6,3.85 Q 160.6,84 157,81.9 q -3.65,-2.1 -4.95,-5.75 -1.2,-3.65 0.55,-6.75 1.8,-3.1 5.55,-3.85 3.8,-0.7 7.45,1.4 3.6,2.1 4.85,5.7 z"
     fill="none"
     stroke="#85846c"
     stroke-linecap="round"
     stroke-linejoin="round"
     stroke-width="1"
     id="path280"
     style="stroke:#8a7345;stroke-opacity:1" />
  <path
     d="m 169,31.55 q 2.55,-3.15 4.3,-3.55 1.95,-0.45 6.95,1.2 4.75,1.45 5.55,2.35 0.5,0.6 1.3,4.7 0.9,5.1 0.9,10.2 0,15.2 -8.3,21.7 L 166.85,34.7 169,31.55"
     fill="#d8d6b0"
     fill-rule="evenodd"
     stroke="none"
     id="path282"
     style="fill:#bc9d5f;fill-opacity:1" />
  <path
     d="m 169,31.55 q 2.55,-3.15 4.3,-3.55 1.95,-0.45 6.95,1.2 4.75,1.45 5.55,2.35 0.5,0.6 1.3,4.7 0.9,5.1 0.9,10.2 0,15.2 -8.3,21.7 L 166.85,34.7 Z"
     fill="none"
     stroke="#85846c"
     stroke-linecap="round"
     stroke-linejoin="round"
     stroke-width="1"
     id="path284"
     style="stroke:#8a7345;stroke-opacity:1" />
  <path
     d="m 178.75,41 2.85,-3.35 q 2.85,-3.7 2.85,-5.55"
     fill="none"
     stroke="#afae8a"
     stroke-linecap="round"
     stroke-linejoin="round"
     stroke-width="1"
     id="path286"
     style="stroke:#8a7345;stroke-opacity:1" />
  <path
     d="m 172.2,50.65 -10.9,-12.2 2,-2.75 q 2.1,-2.8 2.65,-2.8 0.6,0 7.95,2.9 l 7.15,2.85 -8.85,12 8.85,-12 0.05,0.05 1.65,4.4 q 1.6,5.5 1.35,11.05 -0.2,5.55 -2.3,8.95 l -2.05,2.3 -3.4,-3.45 -0.25,-7 -3.9,-4.3"
     fill="#af984e"
     fill-rule="evenodd"
     stroke="none"
     id="path288"
     style="fill:#d4b46e;fill-opacity:1" />
  <path
     d="M 181.05,38.65 173.9,35.8 q -7.35,-2.9 -7.95,-2.9 -0.55,0 -2.65,2.8 l -2,2.75 10.9,12.2 8.85,-12 0.05,0.05 1.65,4.4 q 1.6,5.5 1.35,11.05 -0.2,5.55 -2.3,8.95 l -2.05,2.3 -3.4,-3.45 -0.25,-7 -3.9,-4.3"
     fill="none"
     stroke="#7b673f"
     stroke-linecap="round"
     stroke-linejoin="round"
     stroke-width="1"
     id="path290"
     style="stroke:#8a7345;stroke-opacity:1" />
  <path
     d="m 177,44.75 q 2.85,7.1 1.7,13.95 -0.6,3.45 -1.8,5.45 l -5.1,-4.1 -10.5,-21.6 15.7,6.3"
     fill="#8c793c"
     fill-rule="evenodd"
     stroke="none"
     id="path292"
     style="fill:#ab8e56;fill-opacity:1" />
  <path
     d="m 177,44.749955 -15.7,-6.3 10.5,21.6 5.1,4.1 q 1.2,-2 1.8,-5.45 1.15,-6.85 -1.7,-13.95 z"
     fill="none"
     stroke="#7b673f"
     stroke-linecap="round"
     stroke-linejoin="round"
     stroke-width="1"
     id="path294"
     style="stroke:#8a7345;stroke-opacity:1" />
  <path
     d="m 171.5,46.35 q 2.7,1.8 3.05,3.05 0.5,1.75 -1.3,9.45 l -10.95,-8.8 2,-2.6 q 2.3,-2.7 3.25,-2.8 1.25,-0.1 3.95,1.7"
     fill="#af984e"
     fill-rule="evenodd"
     stroke="none"
     id="path296"
     style="fill:#bc9d5f;fill-opacity:1" />
  <path
     d="m 171.5,46.350326 q 2.7,1.8 3.05,3.05 0.5,1.75 -1.3,9.45 l -10.95,-8.8 2,-2.6 q 2.3,-2.7 3.25,-2.8 1.25,-0.1 3.95,1.7 z"
     fill="none"
     stroke="#7b673f"
     stroke-linecap="round"
     stroke-linejoin="round"
     stroke-width="1"
     id="path298"
     style="stroke:#8a7345;stroke-opacity:1" />
  <path
     d="m 153.5,87.9 -0.25,2.15 -16.15,-6.4 -0.2,-0.15 q -1.25,3.3 -3.1,6.55 l -3.1,4.45 q -2.05,-1.25 -2.95,-2.6 l 2.85,-4.7 q 1.8,-3.2 2.8,-6 h 0.05 q 11.75,2.8 20.05,6.7 m -1.25,6.45 q -1.35,4.7 -3.1,5.75 l -9.3,-2.05 -4.25,-1.3 1.5,-1.4 q 3.65,-2.7 7.3,-3.2 3.65,-0.5 6.65,1.35 l 1.2,0.85 m -18.8,-13.15 3.45,2.3 -3.45,-2.3"
     fill="#afad90"
     fill-rule="evenodd"
     stroke="none"
     id="path300"
     style="fill:#ab8e56;fill-opacity:1" />
  <path
     d="m 133.4,81.2 1.3,-4.25 8.45,2.45 q 8.65,2.9 9.75,4.75 0.7,1.25 0.6,3.75 -8.3,-3.9 -20.05,-6.7 h -0.05"
     fill="#f5f4e8"
     fill-rule="evenodd"
     stroke="none"
     id="path302"
     style="fill:#d4b46e;fill-opacity:1" />
  <path
     d="m 153.25,90.05 -0.55,2.6 -0.45,1.7 -1.2,-0.85 q -3,-1.85 -6.65,-1.35 -3.65,0.5 -7.3,3.2 l -1.5,1.4 q -3,-1.05 -4.9,-2.25 l 3.1,-4.45 q 1.85,-3.25 3.1,-6.55 l 0.2,0.15 16.15,6.4"
     fill="#6b6a56"
     fill-rule="evenodd"
     stroke="none"
     id="path304"
     style="fill:#75623b;fill-opacity:1" />
  <path
     d="m 133.39999,81.199988 1.3,-4.25 8.45,2.45 q 8.65,2.9 9.75,4.75 0.7,1.25 0.6,3.75 l -0.25,2.15 -0.55,2.6 -0.45,1.7 q -1.35,4.7 -3.1,5.750002 l -9.3,-2.050002 -4.25,-1.3 q -3,-1.05 -4.9,-2.25 -2.05,-1.25 -2.95,-2.6 l 2.85,-4.7 q 1.8,-3.2 2.8,-6 h 0.05 q 11.75,2.8 20.05,6.7 m -16.6,-4.4 0.2,0.15 16.15,6.4 m -22.55,4.45 3.1,-4.45 q 1.85,-3.25 3.1,-6.55 l -3.45,-2.3 m 18.8,13.15 -1.2,-0.85 q -3,-1.85 -6.65,-1.35 -3.65,0.5 -7.3,3.2 l -1.5,1.4"
     fill="none"
     stroke="#85846c"
     stroke-linecap="round"
     stroke-linejoin="round"
     stroke-width="1"
     id="path306"
     style="stroke:#8a7345;stroke-opacity:1" />
  <path
     d="m 150.45,51.65 -0.2,-0.1 -6.9,0.3 q -5.5,0.6 -10.65,6.2 l -5.85,6.45 q 2.65,-5.5 5.15,-9.85 3.25,-5.6 7.7,-7.4 5,-2.05 11.45,-2 6.4,0.05 14.35,3.7 7.95,3.65 13.45,12.7 5.5,9.05 5.15,18.5 -0.4,9.45 -3.05,13.8 l -1.85,2.2 -0.9,0.6 q -5.05,2.85 -10.4,1.6 l -4.4,-1.85 3.1,-6.35 4.35,-11.4 q 0.9,-0.85 1.25,-3.35 0.3,-2.1 -0.55,-7.05 -0.9,-5.25 -1.95,-6.9 -0.95,-1.45 -3.65,-2.6 l -2.6,-0.8 -6.95,4.5 -9.25,-1.6 L 145,57.3 q 4.3,-2.55 6.3,-5.65 h -0.85 v -0.05 0.05 -0.05 0.05"
     fill="#bfbd9c"
     fill-rule="evenodd"
     stroke="none"
     id="path308"
     style="fill:#bc9d5f;fill-opacity:1" />
  <path
     d="m 150.45,51.65 h 0.85 q -2,3.1 -6.3,5.65 l 2.25,3.65 9.25,1.6 6.95,-4.5 2.6,0.8 q 2.7,1.15 3.65,2.6 1.05,1.65 1.95,6.9 0.85,4.95 0.55,7.05 -0.35,2.5 -1.25,3.35 l -4.35,11.4 -3.1,6.35 4.4,1.85 q 5.35,1.25 10.4,-1.6 l 0.9,-0.6 1.85,-2.2 q 2.65,-4.35 3.05,-13.8 0.35,-9.45 -5.15,-18.5 -5.5,-9.05 -13.45,-12.7 -7.95,-3.65 -14.35,-3.7 -6.45,-0.05 -11.45,2 -4.45,1.8 -7.7,7.4 -2.5,4.35 -5.15,9.85 l 5.85,-6.45 q 5.15,-5.6 10.65,-6.2 l 6.9,-0.3 0.2,0.1 V 51.6 Z"
     fill="none"
     stroke="#85846c"
     stroke-linecap="round"
     stroke-linejoin="round"
     stroke-width="1"
     id="path310"
     style="stroke:#8a7345;stroke-opacity:1" />
  <path
     d="m 144.6,60.65 q 2.35,2.05 2.35,4.85 0,2.85 -2.35,4.9 -2.35,2.05 -5.65,2.05 -3.35,0 -5.7,-2.05 -2.3,-2.05 -2.3,-4.9 0,-2.8 2.3,-4.85 2.35,-2 5.7,-2 3.3,0 5.65,2"
     fill="#ecebd3"
     fill-rule="evenodd"
     stroke="none"
     id="path312"
     style="fill:#d4b46e;fill-opacity:1" />
  <path
     d="m 144.6,60.65 q 2.35,2.05 2.35,4.85 0,2.85 -2.35,4.9 -2.35,2.05 -5.65,2.05 -3.35,0 -5.7,-2.05 -2.3,-2.05 -2.3,-4.9 0,-2.8 2.3,-4.85 2.35,-2 5.7,-2 3.3,0 5.65,2 z"
     fill="none"
     stroke="#85846c"
     stroke-linecap="round"
     stroke-linejoin="round"
     stroke-width="1"
     id="path314"
     style="stroke:#8a7345;stroke-opacity:1" />
  <path
     d="m 163.45,72.55 -2.6,0.1 q -1.4,-0.4 -2.15,-1.4 -0.75,-1 -0.5,-2.1 0.3,-1 1.45,-1.55 l 2.55,-0.1 q 1.45,0.35 2.2,1.4 0.75,1.05 0.45,2.05 -0.25,1.1 -1.4,1.6"
     fill="#85846c"
     fill-rule="evenodd"
     stroke="none"
     id="path316"
     style="fill:#8a7345;fill-opacity:1" />
  <path
     d="m 140.9,63.75 q -0.85,0.65 -2.05,0.65 -1.2,0 -2,-0.65 -0.8,-0.65 -0.8,-1.55 0,-0.85 0.8,-1.55 0.8,-0.65 2,-0.65 1.2,0 2.05,0.65 0.8,0.7 0.8,1.55 0,0.9 -0.8,1.55"
     fill="#85846c"
     fill-rule="evenodd"
     stroke="none"
     id="path318"
     style="fill:#8a7345;fill-opacity:1" />
  <path
     d="m 62.15,35.5 q 2.95,-2.95 4.1,-2 1.25,1.1 -1,2.6 -2,1.3 -4.55,1.65 -0.05,-0.8 1.45,-2.25"
     fill="#8a7345"
     fill-rule="evenodd"
     stroke="none"
     id="path320" />
  <path
     d="M 72.85,62.5 68.6,62.1 Q 68,61.7 67.9,57.8 67.7,53.9 68.45,53.5 69.3,53 74.85,52.4 l 6.3,-0.65 q 0.8,0.05 1.2,3.35 0.25,3.25 -0.05,4.7 -0.25,1.3 -3.05,2 l -6.4,0.7"
     fill="#d8d6b0"
     fill-rule="evenodd"
     stroke="none"
     id="path322"
     style="fill:#ab8e56;fill-opacity:1" />
  <path
     d="m 72.85,62.5 6.4,-0.7 q 2.8,-0.7 3.05,-2 0.3,-1.45 0.05,-4.7 -0.4,-3.3 -1.2,-3.35 l -6.3,0.65 q -5.55,0.6 -6.4,1.1 -0.75,0.4 -0.55,4.3 0.1,3.9 0.7,4.3 z"
     fill="none"
     stroke="#85846c"
     stroke-linecap="round"
     stroke-linejoin="round"
     stroke-width="1"
     id="path324"
     style="stroke:#8a7345;stroke-opacity:1" />
  <path
     d="M 71.35,53.5 67.2,53 q -0.55,-0.4 -0.7,-4.45 -0.1,-4.15 0.75,-4.6 0.85,-0.4 6.25,-1.45 l 6.3,-1 q 0.8,0.05 1.1,4 0.3,3.95 0,5.4 -0.25,1.3 -3.15,2 l -6.4,0.6"
     fill="#d8d6b0"
     fill-rule="evenodd"
     stroke="none"
     id="path326"
     style="fill:#ab8e56;fill-opacity:1" />
  <path
     d="M 71.35,53.5 67.2,53 q -0.55,-0.4 -0.7,-4.45 -0.1,-4.15 0.75,-4.6 0.85,-0.4 6.25,-1.45 l 6.3,-1 q 0.8,0.05 1.1,4 0.3,3.95 0,5.4 -0.25,1.3 -3.15,2 z"
     fill="none"
     stroke="#85846c"
     stroke-linecap="round"
     stroke-linejoin="round"
     stroke-width="1"
     id="path328"
     style="stroke:#8a7345;stroke-opacity:1" />
  <path
     d="m 40.7,61.6 6.2,0.2 q 5.15,0.3 5.9,0.8 0.75,0.6 0.85,4.3 l 0.15,5.85 v 0.3 q -2.75,1.15 -6.15,1.3 l -5.7,-0.4 -3.3,-0.9 q -0.2,-4.25 0.45,-7.8 0.6,-3.55 1.6,-3.65"
     fill="#d8d6b0"
     fill-rule="evenodd"
     stroke="none"
     id="path330"
     style="fill:#ab8e56;fill-opacity:1" />
  <path
     d="m 40.7,61.6 q -1,0.1 -1.6,3.65 -0.65,3.55 -0.45,7.8 l 3.3,0.9 5.7,0.4 q 3.4,-0.15 6.15,-1.3 v -0.3 L 53.65,66.9 q -0.1,-3.7 -0.85,-4.3 -0.75,-0.5 -5.9,-0.8 z"
     fill="none"
     stroke="#85846c"
     stroke-linecap="round"
     stroke-linejoin="round"
     stroke-width="1"
     id="path332"
     style="stroke:#8a7345;stroke-opacity:1" />
  <path
     d="m 49.3,63.25 q -2.8,0.3 -6.45,-0.05 -3.7,-0.45 -4.2,-0.95 -0.5,-0.45 -0.4,-4.4 0.05,-3.85 0.85,-4.2 l 6.45,-0.35 6.3,0.1 q 0.8,0.2 0.95,3.5 0.05,3.3 -0.35,4.7 -0.4,1.3 -3.15,1.65"
     fill="#d8d6b0"
     fill-rule="evenodd"
     stroke="none"
     id="path334"
     style="fill:#ab8e56;fill-opacity:1" />
  <path
     d="m 49.3,63.25 q 2.75,-0.35 3.15,-1.65 0.4,-1.4 0.35,-4.7 -0.15,-3.3 -0.95,-3.5 l -6.3,-0.1 -6.45,0.35 q -0.8,0.35 -0.85,4.2 -0.1,3.95 0.4,4.4 0.5,0.5 4.2,0.95 3.65,0.35 6.45,0.05 z"
     fill="none"
     stroke="#85846c"
     stroke-linecap="round"
     stroke-linejoin="round"
     stroke-width="1"
     id="path336"
     style="stroke:#8a7345;stroke-opacity:1" />
  <path
     d="M 53,53.1 Q 53.5,52.65 53.3,48.55 53.1,44.4 52.25,44 l -6.3,-0.65 -6.3,-0.3 q -0.8,0.15 -0.8,4.15 -0.05,4 0.35,5.35 0.4,1.35 3.3,1.65 2.9,0.3 6.45,-0.15 3.5,-0.5 4.05,-0.95"
     fill="#d8d6b0"
     fill-rule="evenodd"
     stroke="none"
     id="path338"
     style="fill:#ab8e56;fill-opacity:1" />
  <path
     d="M 53,53.1 Q 53.5,52.65 53.3,48.55 53.1,44.4 52.25,44 l -6.3,-0.65 -6.3,-0.3 q -0.8,0.15 -0.8,4.15 -0.05,4 0.35,5.35 0.4,1.35 3.3,1.65 2.9,0.3 6.45,-0.15 3.5,-0.5 4.05,-0.95 z"
     fill="none"
     stroke="#85846c"
     stroke-linecap="round"
     stroke-linejoin="round"
     stroke-width="1"
     id="path340"
     style="stroke:#8a7345;stroke-opacity:1" />
  <path
     d="m 75.8,32 q -6.75,1.75 -16.5,2.7 -9.75,0.9 -16.85,0.45 -7.05,-0.45 -7.3,-2.1 -0.25,-1.6 6.5,-3.4 Q 48.45,27.9 58.2,27 L 75,26.5 q 7.1,0.5 7.35,2.1 0.25,1.65 -6.55,3.4"
     fill="#ecebd3"
     fill-rule="evenodd"
     stroke="none"
     id="path342"
     style="fill:#d4b46e;fill-opacity:1" />
  <path
     d="m 75.800101,32 q -6.75,1.75 -16.5,2.7 -9.75,0.9 -16.85,0.45 -7.05,-0.45 -7.3,-2.1 -0.25,-1.6 6.5,-3.4 6.8,-1.75 16.55,-2.65 l 16.8,-0.5 q 7.1,0.5 7.35,2.1 0.25,1.65 -6.55,3.4 z"
     fill="none"
     stroke="#85846c"
     stroke-linecap="round"
     stroke-linejoin="round"
     stroke-width="1"
     id="path344"
     style="stroke:#8a7345;stroke-opacity:1" />
  <path
     d="M 87.45,77.05 Q 86.5,78.4 80.25,79.65 72.85,81.3 62.15,82 51.4,82.6 43.65,81.95 36.6,81.4 35.8,79.95"
     fill="none"
     stroke="#85846c"
     stroke-linecap="round"
     stroke-linejoin="round"
     stroke-width="1"
     id="path346"
     style="stroke:#8a7345;stroke-opacity:1" />
  <path
     d="m 66,87.25 q 1,2 1.25,4.65 -11.95,2.8 -19.8,3.4 l -13.65,-0.4 -5,-1.4 q 2.65,-5.25 3.75,-8.45 1.2,-3.45 9.7,-5.5 L 50.1,79.1 q 5.95,0.3 10.05,2.3 3.8,1.8 5.85,5.85"
     fill="#d8d6b0"
     fill-rule="evenodd"
     stroke="none"
     id="path348"
     style="fill:#bc9d5f;fill-opacity:1" />
  <path
     d="M 66,87.25 Q 63.95,83.2 60.15,81.4 56.05,79.4 50.1,79.1 l -7.85,0.45 q -8.5,2.05 -9.7,5.5 -1.1,3.2 -3.75,8.45 l 5,1.4 13.65,0.4 Q 55.3,94.7 67.25,91.9 67,89.25 66,87.25 Z"
     fill="none"
     stroke="#85846c"
     stroke-linecap="round"
     stroke-linejoin="round"
     stroke-width="1"
     id="path350"
     style="stroke:#8a7345;stroke-opacity:1" />
  <path
     d="m 69.45,90.9 -0.6,4.3 -9.9,1.45 -16.85,0.9 -11.85,-1.35 -5,-0.75 0.85,-1.55 q 3.65,-1.1 5.6,-1.2 l 9,0.75 q 5.85,0.7 9.7,0.15 l 11.05,-1.85 q 6.55,-1.15 8,-0.85"
     fill="#81be6a"
     fill-rule="evenodd"
     stroke="none"
     id="path352"
     style="fill:#d4b46e;fill-opacity:1" />
  <path
     d="m 26.1,93.9 q 3.65,-1.1 5.6,-1.2 l 9,0.75 q 5.85,0.7 9.7,0.15 l 11.05,-1.85 q 6.55,-1.15 8,-0.85"
     fill="none"
     stroke="#628e51"
     stroke-linecap="round"
     stroke-linejoin="round"
     stroke-width="1"
     id="path354"
     style="stroke:#8a7345;stroke-opacity:1" />
  <path
     d="m 40.4,85.85 1.5,1.2 q 1.95,1.2 4.55,1.25 1.35,0.05 2.95,-0.9 l 3.1,-1.85 q 4.3,-2.6 9,-1.5"
     fill="none"
     stroke="#afae8a"
     stroke-linecap="round"
     stroke-linejoin="round"
     stroke-width="1"
     id="path356"
     style="stroke:#8a7345;stroke-opacity:1" />
  <path
     d="m 32.15,95.25 q 3.15,-4.9 8.3,-4.3 5.2,0.55 7.9,3.95 l 3.25,5.3 H 29.95 l 2.2,-4.95"
     fill="#bfbd9c"
     fill-rule="evenodd"
     stroke="none"
     id="path358"
     style="fill:#bc9d5f;fill-opacity:1" />
  <path
     d="m 32.15,95.25 -2.2,4.95 H 51.6 l -3.25,-5.3 q -2.7,-3.4 -7.9,-3.95 -5.15,-0.6 -8.3,4.3 z"
     fill="none"
     stroke="#85846c"
     stroke-linecap="round"
     stroke-linejoin="round"
     stroke-width="1"
     id="path360"
     style="stroke:#8a7345;stroke-opacity:1" />
  <path
     d="m 122.2,96.15 -24.45,1 -3.4,-5.25 4.15,-2.65 q 4.75,-2.75 7.7,-3.1 3,-0.35 8.1,2.6 3.1,1.75 5.85,3.95 1.55,1.3 2.05,3.45"
     fill="#bfbd9c"
     fill-rule="evenodd"
     stroke="none"
     id="path362"
     style="fill:#bc9d5f;fill-opacity:1" />
  <path
     d="m 122.2,96.15 -24.45,1 -3.4,-5.25 4.15,-2.65 q 4.75,-2.75 7.7,-3.1 3,-0.35 8.1,2.6 3.1,1.75 5.85,3.95 1.55,1.3 2.05,3.45 z"
     fill="none"
     stroke="#85846c"
     stroke-linecap="round"
     stroke-linejoin="round"
     stroke-width="1"
     id="path364"
     style="stroke:#8a7345;stroke-opacity:1" />
  <path
     d="M 103.05,100.05 H 65.65 L 72.3,94.5 q 4.85,-2.95 7.8,-3.1 l 5.1,0.4 1.35,0.25 q 4.2,-2.5 6.2,-2.5 2.15,0 5.65,2.9 1.7,1.4 3.05,2.85 l 1.6,4.75"
     fill="#d8d6b0"
     fill-rule="evenodd"
     stroke="none"
     id="path366"
     style="fill:#bc9d5f;fill-opacity:1" />
  <path
     d="M 103.05,100.05 H 65.65 L 72.3,94.5 q 4.85,-2.95 7.8,-3.1 l 5.1,0.4 1.35,0.25 q 4.2,-2.5 6.2,-2.5 2.15,0 5.65,2.9 1.7,1.4 3.05,2.85 z"
     fill="none"
     stroke="#85846c"
     stroke-linecap="round"
     stroke-linejoin="round"
     stroke-width="1"
     id="path368"
     style="stroke:#8a7345;stroke-opacity:1" />
  <path
     d="m 82.9,95.2 6.2,0.9 q 6.1,-5.1 9.45,-3.45"
     fill="none"
     stroke="#afae8a"
     stroke-linecap="round"
     stroke-linejoin="round"
     stroke-width="1"
     id="path370"
     style="stroke:#8a7345;stroke-opacity:1" />
  <path
     d="m 145.25,57.25 9.85,3.95 h 0.05 l 8.15,-6 q 7.55,3.3 9.45,8.3 1.8,5.05 1.35,10.8 -0.4,5.7 -1.3,6.05 l -3.55,0.2 -1,-0.3 q 0.85,-2 1.7,-5.55 0.85,-3.55 -0.5,-7.6 Q 168,63 163.6,60.5 l -0.15,-0.1 -7.65,4.85 -10,-4.35 -0.55,-3.65 m 4.65,-3.5 -9.55,0.3 q -4.75,1.45 -6.65,4.65 l -3.05,4.9 q -1.15,1.65 -3.55,2.3 l -2.2,0.35 v 0.05 l -4,-3.45 V 62.8 l 2.55,0.5 q 2.85,0.2 4.55,-1.45 l 4.85,-5.8 q 3.65,-4.7 9.5,-5.5 5.9,-0.75 8.75,-0.05 1.4,0.4 1.65,0.9 l -2.85,2.35 m 5.9,11.5 -0.65,-4.05 0.65,4.05 m 7.5,-10.05 0.3,5.3 -0.3,-5.3"
     fill="#9f9d7e"
     fill-rule="evenodd"
     stroke="none"
     id="path372"
     style="fill:#aa8d55;fill-opacity:1" />
  <path
     d="m 145.25,57.250006 9.85,3.95 h 0.05 l 8.15,-6 q 7.55,3.3 9.45,8.3 1.8,5.05 1.35,10.8 -0.4,5.7 -1.3,6.05 l -3.55,0.2 -1,-0.3 q 0.85,-2 1.7,-5.55 0.85,-3.55 -0.5,-7.6 -1.45,-4.1 -5.85,-6.6 l -0.15,-0.1 -7.65,4.85 -10,-4.35 -0.55,-3.65 4.65,-3.5 -9.55,0.3 q -4.75,1.45 -6.65,4.65 l -3.05,4.9 q -1.15,1.65 -3.55,2.3 l -2.2,0.35 v 0.05 m -4,-3.45 v -0.05 l 2.55,0.5 q 2.85,0.2 4.55,-1.45 l 4.85,-5.8 q 3.65,-4.7 9.5,-5.5 5.9,-0.75 8.75,-0.05 1.4,0.4 1.65,0.9 l -2.85,2.35 m 13.7,6.75 -0.3,-5.3 m -8.15,6 0.65,4.05"
     fill="none"
     stroke="#85846c"
     stroke-linecap="round"
     stroke-linejoin="round"
     stroke-width="1"
     id="path374"
     style="stroke:#8a7345;stroke-opacity:1" />
  <path
     d="m 170.75,84.95 q -1.7,5.5 -4.4,9.15 -2.65,3.7 -5.4,3.6 l -2.25,-0.8 q 1.25,-1.75 2.55,-4.7 2.6,-6 3.1,-12.15 l 7.5,0.1 -1.1,4.8"
     fill="#afad90"
     fill-rule="evenodd"
     stroke="none"
     id="path376"
     style="fill:#bc9d5f;fill-opacity:1" />
  <path
     d="m 170.75,84.949999 q -1.7,5.5 -4.4,9.15 -2.65,3.7 -5.4,3.6 l -2.25,-0.8 q 1.25,-1.75 2.55,-4.7 2.6,-6 3.1,-12.15 l 7.5,0.1 z"
     fill="none"
     stroke="#85846c"
     stroke-linecap="round"
     stroke-linejoin="round"
     stroke-width="1"
     id="path378"
     style="stroke:#8a7345;stroke-opacity:1" />
  <path
     d="m 121.25,86.1 -3.75,-1.2 q -0.65,-3.05 -0.55,-7.25 0.15,-8.55 3.95,-14.8 l 4,3.45 q -2.4,6.45 -3.25,13.75 -0.45,3.7 -0.4,6.05"
     fill="#bfbd9c"
     fill-rule="evenodd"
     stroke="none"
     id="path380"
     style="fill:#bc9d5f;fill-opacity:1" />
  <path
     d="m 121.25,86.1 -3.75,-1.2 q -0.65,-3.05 -0.55,-7.25 0.15,-8.55 3.95,-14.8 l 4,3.45 q -2.4,6.45 -3.25,13.75 -0.45,3.7 -0.4,6.05 z"
     fill="none"
     stroke="#85846c"
     stroke-linecap="round"
     stroke-linejoin="round"
     stroke-width="1"
     id="path382"
     style="stroke:#8a7345;stroke-opacity:1" />
  <path
     d="m 114.05,81.9 0.85,-0.4 2.6,-0.35 q 4.4,-0.05 9.75,3.65 8.45,6 12.45,8.15 6.8,3.7 11.8,3.55 l 6.2,-0.85 7.2,-1.45 q 9.6,-1.7 17.3,0.5 l 3.95,1.15 v 3.1 q -7.75,1.85 -16.75,3.3 -21.5,3.5 -30.6,1 -9.05,-2.5 -17.8,-12.15 -2.75,-3.05 -5.1,-6.4 l -1.85,-2.8"
     fill="#81be6a"
     fill-rule="evenodd"
     stroke="none"
     id="path384"
     style="fill:#d4b46e;fill-opacity:1" />
  <path
     d="m 114.05,81.9 0.85,-0.4 2.6,-0.35 q 4.4,-0.05 9.75,3.65 8.45,6 12.45,8.15 6.8,3.7 11.8,3.55 l 6.2,-0.85 7.2,-1.45 q 9.6,-1.7 17.3,0.5 l 3.95,1.15"
     fill="none"
     stroke="#628e51"
     stroke-linecap="round"
     stroke-linejoin="round"
     stroke-width="1"
     id="path386"
     style="stroke:#8a7345;stroke-opacity:1" />
  <path
     d="M 125.5,15.5 117.6,29 105.25,22.45 117.9,0.5 118.8,1.65 120.3,3 q 0.75,0.25 1.45,1.4 0.75,1.2 0.55,2 l -0.95,2.95 q -0.6,2.25 0.15,2.6 l 2.45,1.7 q 1.5,1.3 1.55,1.85"
     fill="#ecebd3"
     fill-rule="evenodd"
     stroke="none"
     id="path388"
     style="fill:#d8ba74;fill-opacity:1" />
  <path
     d="M 125.5,15.5 117.6,29 105.25,22.45 117.9,0.5 118.8,1.65 120.3,3 q 0.75,0.25 1.45,1.4 0.75,1.2 0.55,2 l -0.95,2.95 q -0.6,2.25 0.15,2.6 l 2.45,1.7 q 1.5,1.3 1.55,1.85 z"
     fill="none"
     stroke="#85846c"
     stroke-linecap="round"
     stroke-linejoin="round"
     stroke-width="1"
     id="path390"
     style="stroke:#8a7345;stroke-opacity:1" />
  <path
     d="m 110.55,27.45 9.85,-15.9"
     fill="none"
     stroke="#afae8a"
     stroke-linecap="round"
     stroke-linejoin="round"
     stroke-width="1"
     id="path392"
     style="stroke:#8a7345;stroke-opacity:1" />
  <path
     d="m 104.7,9.8 q 0.4,0.3 -0.35,4.15 l -0.8,4.35 q 0.2,0.65 8.15,6.3 6.9,4.9 9.4,5.55 1.1,0.3 4.05,-2.8 2.6,-2.8 2.65,-2.5 0.1,0.8 -2.45,6.15 -2.65,5.4 -3.5,5.85 -0.7,0.4 -5.05,-2 l -7.8,-4.4 q -3.55,-1.95 -7.2,-4.95 -3.55,-2.95 -4.15,-4.35 -0.55,-1.25 2.95,-6.55 3.45,-5.3 4.1,-4.8"
     fill="#af984e"
     fill-rule="evenodd"
     stroke="none"
     id="path394"
     style="fill:#bc9d5f;fill-opacity:1" />
  <path
     d="m 104.69969,9.8 q -0.65,-0.5 -4.1,4.8 -3.500001,5.3 -2.950001,6.55 0.6,1.4 4.150001,4.35 3.65,3 7.2,4.95 l 7.8,4.4 q 4.35,2.4 5.05,2 0.85,-0.45 3.5,-5.85 2.55,-5.35 2.45,-6.15 -0.05,-0.3 -2.65,2.5 -2.95,3.1 -4.05,2.8 -2.5,-0.65 -9.4,-5.55 -7.95,-5.65 -8.15,-6.3 l 0.8,-4.35 q 0.75,-3.85 0.35,-4.15 z"
     fill="none"
     stroke="#7b673f"
     stroke-linecap="round"
     stroke-linejoin="round"
     stroke-width="1"
     id="path396"
     style="stroke:#8a7345;stroke-opacity:1" />
  <path
     d="m 97.25,66.6 11.7,-0.9 1.5,13.7 q -2.5,1.15 -8.1,1.2 l -5.1,-0.15 V 66.6"
     fill="#c6c4a0"
     fill-rule="evenodd"
     stroke="none"
     id="path398"
     style="fill:#ab8e56;fill-opacity:1" />
  <path
     d="m 97.25,66.6 v 13.85 l 5.1,0.15 q 5.6,-0.05 8.1,-1.2 l -1.5,-13.7 z"
     fill="none"
     stroke="#85846c"
     stroke-linecap="round"
     stroke-linejoin="round"
     stroke-width="1"
     id="path400"
     style="stroke:#8a7345;stroke-opacity:1" />
  <path
     d="m 105.95,39.75 0.6,3.1 v 0.05 l 4.15,23.7 q -0.65,0.5 -1.85,1 -2.4,1 -5.1,1.1 -2.7,0.1 -5.4,-0.75 L 96.25,67.15 96,52.4 105.95,39.75"
     fill="#d8d6b0"
     fill-rule="evenodd"
     stroke="none"
     id="path402"
     style="fill:#bc9d5f;fill-opacity:1" />
  <path
     d="M 105.95,39.75 96,52.4 l 0.25,14.75 2.1,0.8 q 2.7,0.85 5.4,0.75 2.7,-0.1 5.1,-1.1 1.2,-0.5 1.85,-1 l -4.15,-23.7 v -0.05 z"
     fill="none"
     stroke="#85846c"
     stroke-linecap="round"
     stroke-linejoin="round"
     stroke-width="1"
     id="path404"
     style="stroke:#8a7345;stroke-opacity:1" />
  <path
     d="M 113,30 96.35,60.35 90.05,56.85 107,26.1 q 4.4,0.1 6,3.9"
     fill="#8c793c"
     fill-rule="evenodd"
     stroke="none"
     id="path406"
     style="fill:#9f844f;fill-opacity:1" />
  <path
     d="M 113,30 96.35,60.35 90.05,56.85 107,26.1 q 4.4,0.1 6,3.9 z"
     fill="none"
     stroke="#7b673f"
     stroke-linecap="round"
     stroke-linejoin="round"
     stroke-width="1"
     id="path408"
     style="stroke:#8a7345;stroke-opacity:1" />
  <path
     d="m 96.6,61.95 q 6.8,2.1 12.75,-0.65"
     fill="none"
     stroke="#85846c"
     stroke-linecap="round"
     stroke-linejoin="round"
     stroke-width="1"
     id="path410"
     style="stroke:#8a7345;stroke-opacity:1" />
  <path
     d="m 89.95,62 q -1.5,-1.5 -1.5,-3.65 0,-2.15 1.5,-3.65 1.5,-1.5 3.6,-1.5 2.2,0 3.65,1.5 1.5,1.5 1.5,3.65 0,2.15 -1.5,3.65 -1.45,1.5 -3.65,1.5 -2.1,0 -3.6,-1.5"
     fill="#af984e"
     fill-rule="evenodd"
     stroke="none"
     id="path412"
     style="fill:#bc9d5f;fill-opacity:1" />
  <path
     d="m 89.95,62 q -1.5,-1.5 -1.5,-3.65 0,-2.15 1.5,-3.65 1.5,-1.5 3.6,-1.5 2.2,0 3.65,1.5 1.5,1.5 1.5,3.65 0,2.15 -1.5,3.65 -1.45,1.5 -3.65,1.5 -2.1,0 -3.6,-1.5 z"
     fill="none"
     stroke="#7b673f"
     stroke-linecap="round"
     stroke-linejoin="round"
     stroke-width="1"
     id="path414"
     style="stroke:#8a7345;stroke-opacity:1" />
  <path
     d="m 96.1,33.1 q 1.25,-2.5 3.05,-3.7 1.8,-1.25 3.8,-0.5 1.95,0.75 3.75,3.05 1.8,2.35 1.15,3.3 -0.5,0.9 -3.75,0.85 l -3.2,-0.3 -4.15,3.5 Q 96.3,39.2 95.6,37.4 94.8,35.6 96.1,33.1"
     fill="#d8d6b0"
     fill-rule="evenodd"
     stroke="none"
     id="path416"
     style="fill:#bc9d5f;fill-opacity:1" />
  <path
     d="m 96.099837,33.1 q 1.25,-2.5 3.05,-3.7 1.800003,-1.25 3.800003,-0.5 1.95,0.75 3.75,3.05 1.8,2.35 1.15,3.3 -0.5,0.9 -3.75,0.85 l -3.2,-0.3 -4.150003,3.5 q -0.45,-0.1 -1.15,-1.9 -0.8,-1.8 0.5,-4.3 z"
     fill="none"
     stroke="#85846c"
     stroke-linecap="round"
     stroke-linejoin="round"
     stroke-width="1"
     id="path418"
     style="stroke:#8a7345;stroke-opacity:1" />
  <path
     d="m 94.7,35.6 q 1.8,-1.8 3.5,-2.4 l 2.8,-0.25 q 1.5,0.15 2.85,1.45 1.45,1.5 1.05,3 -0.4,1.55 -2,2.6 -1.35,0.9 -2.85,1.05 L 92.9,42.1 q -0.2,-0.95 -0.1,-2.2 0.25,-2.6 1.9,-4.3"
     fill="#d8d6b0"
     fill-rule="evenodd"
     stroke="none"
     id="path420"
     style="fill:#bc9d5f;fill-opacity:1" />
  <path
     d="m 94.7,35.6 q 1.8,-1.8 3.5,-2.4 l 2.8,-0.25 q 1.5,0.15 2.85,1.45 1.45,1.5 1.05,3 -0.4,1.55 -2,2.6 -1.35,0.9 -2.85,1.05 L 92.9,42.1 q -0.2,-0.95 -0.1,-2.2 0.25,-2.6 1.9,-4.3 z"
     fill="none"
     stroke="#85846c"
     stroke-linecap="round"
     stroke-linejoin="round"
     stroke-width="1"
     id="path422"
     style="stroke:#8a7345;stroke-opacity:1" />
  <path
     d="m 107.95,41.85 -1.65,-0.1 -1.15,-0.3 -0.4,-0.2 Q 103.4,40.5 103.2,39 q -0.35,-2.2 1.5,-3.45 2.15,-1.55 6.35,-0.35 3.9,1.15 3.65,4.4 -0.25,3.25 -2.6,7.05 -1.5,2.35 -4.5,2.55 l -2.05,-0.05 -2.75,-0.65 3.7,-6.65 h 0.1 1.35 1.35 -1.35"
     fill="#d8d6b0"
     fill-rule="evenodd"
     stroke="none"
     id="path424"
     style="fill:#bc9d5f;fill-opacity:1" />
  <path
     d="m 105.55,49.15 2.05,0.05 q 3,-0.2 4.5,-2.55 2.35,-3.8 2.6,-7.05 0.25,-3.25 -3.65,-4.4 -4.2,-1.2 -6.35,0.35 -1.85,1.25 -1.5,3.45 0.2,1.5 1.55,2.25 l 0.4,0.2 1.15,0.3 1.65,0.1 h 1.35 m -2.7,0 h -0.1"
     fill="none"
     stroke="#85846c"
     stroke-linecap="round"
     stroke-linejoin="round"
     stroke-width="1"
     id="path426"
     style="stroke:#8a7345;stroke-opacity:1" />
  <path
     d="m 106.5,41.85 -3.7,6.65"
     fill="none"
     stroke="#7b673f"
     stroke-linecap="round"
     stroke-linejoin="round"
     stroke-width="1"
     id="path428"
     style="stroke:#8a7345;stroke-opacity:1" />
  <path
     d="M 94.25,49.45 Q 93.2,48.95 92.5,48 q -1.4,-1.85 -1.3,-4.15 0.1,-2.5 2.7,-4.05 2.35,-1.35 4.7,-1.2 2,0.1 3.2,0.85 1.1,0.65 1.2,1.7 0.1,1.05 -0.8,2 -0.9,0.9 -2.25,1.2 l -2.75,0.5 -0.65,0.35 -2.3,4.25"
     fill="#d8d6b0"
     fill-rule="evenodd"
     stroke="none"
     id="path430"
     style="fill:#bc9d5f;fill-opacity:1" />
  <path
     d="M 94.25,49.45 Q 93.2,48.95 92.5,48 q -1.4,-1.85 -1.3,-4.15 0.1,-2.5 2.7,-4.05 2.35,-1.35 4.7,-1.2 2,0.1 3.2,0.85 1.1,0.65 1.2,1.7 0.1,1.05 -0.8,2 -0.9,0.9 -2.25,1.2 l -2.75,0.5 -0.65,0.35 z"
     fill="none"
     stroke="#85846c"
     stroke-linecap="round"
     stroke-linejoin="round"
     stroke-width="1"
     id="path432"
     style="stroke:#8a7345;stroke-opacity:1" />
  <path
     d="m 92.95,80.2 3.7,-0.5 6.65,0.4 q 4.2,-0.4 6.35,-1.2 l 3.6,-0.15 -1.8,5.3 -16.85,0.5 -1.65,-4.35"
     fill="#81be6a"
     fill-rule="evenodd"
     stroke="none"
     id="path434"
     style="fill:#d4b46e;fill-opacity:1" />
  <path
     d="m 113.25,78.75 -3.6,0.15 q -2.15,0.8 -6.35,1.2 l -6.65,-0.4 -3.7,0.5"
     fill="none"
     stroke="#628e51"
     stroke-linecap="round"
     stroke-linejoin="round"
     stroke-width="1"
     id="path436"
     style="stroke:#8a7345;stroke-opacity:1" />
  <path
     d="m 63.55,99 q 4.05,-0.8 12,0 7.95,0.8 16,0.25 9.25,-0.7 10.65,-1.75 l -0.6,-1.8 13.25,-0.7 q 5.65,0.1 12.5,2.75 L 106.95,106.1 62,101.9 63.55,99"
     fill="#81be6a"
     fill-rule="evenodd"
     stroke="none"
     id="path438"
     style="fill:#d4b46e;fill-opacity:1" />
  <path
     d="M 127.35,97.75 Q 120.5,95.1 114.85,95 l -13.25,0.7 0.6,1.8 q -1.4,1.05 -10.65,1.75 -8.05,0.55 -16,-0.25 -7.95,-0.8 -12,0"
     fill="none"
     stroke="#628e51"
     stroke-linecap="round"
     stroke-linejoin="round"
     stroke-width="1"
     id="path440"
     style="stroke:#8a7345;stroke-opacity:1" />
  <path
     d="m 28.95,98.85 q 7.95,0.3 13.85,-1 5.9,-1.35 8.65,-0.45 l 1.85,5.15 -15.9,0.45 q -9.35,-0.05 -8.45,-4.15"
     fill="#81be6a"
     fill-rule="evenodd"
     stroke="none"
     id="path442"
     style="fill:#d4b46e;fill-opacity:1" />
  <path
     d="m 28.95,98.85 q 7.95,0.3 13.85,-1 5.9,-1.35 8.65,-0.45"
     fill="none"
     stroke="#628e51"
     stroke-linecap="round"
     stroke-linejoin="round"
     stroke-width="1"
     id="path444"
     style="stroke:#8a7345;stroke-opacity:1" />
  <path
     d="m 41.75,54.45 q -0.65,4.3 0,8.55 m 7.15,-8.95 q 0.65,4.45 -0.55,8.85 m 1.25,0.7 q 1.3,4.25 0.3,10.5 M 73.25,62.85 q -0.35,4.5 -0.05,9.2 m 6.45,-9.9 q 0.9,4.1 1,9.25 m -8.5,-17.95 q -0.75,4.2 0,8.55 m 6.45,-9 q 0.8,4.4 0.4,8.8 M 43.25,47.2 q -0.9,3.3 0,7.15 m 6.9,-7.55 q 0.15,3.35 -0.4,7.2 M 43.2,63.6 Q 42,68.2 42.25,73.7 m 28.4,-28.4 q -0.55,3.75 0.45,7.55 m 5.8,-9 q 1.1,4.6 0.6,9.1"
     fill="none"
     stroke="#afae8a"
     stroke-linecap="round"
     stroke-linejoin="round"
     stroke-width="1"
     id="path446"
     style="stroke:#8a7345;stroke-opacity:1" />
  <path
     d="m 73.45,18.799762 q 2,2.2 3.3,4.4 1.65,2.6 2.05,5.05 -19.1,6.05 -39.95,3.95 l 0.05,-0.85 q 0.1,-2.3 0.7,-4.4 1.35,-5.4 5.75,-9.4 6.05,-5.549999 14.3,-5.199999 8.2,0.4 13.8,6.449999 m 3.3,4.4 q -17.85,5.4 -37.15,3.75 19.3,1.65 37.15,-3.75"
     fill="#af984e"
     fill-rule="evenodd"
     stroke="none"
     id="path448"
     style="fill:#9f844f;fill-opacity:1" />
  <path
     d="m 73.45,18.799563 q 2,2.2 3.3,4.4 1.65,2.6 2.05,5.05 -19.1,6.049999 -39.95,3.95 l 0.05,-0.85 q 0.1,-2.3 0.7,-4.4 1.35,-5.4 5.75,-9.4 6.05,-5.550001 14.3,-5.200001 8.2,0.4 13.8,6.450001 m -33.85,8.15 q 19.3,1.65 37.15,-3.75"
     fill="none"
     stroke="#7b673f"
     stroke-linecap="round"
     stroke-linejoin="round"
     stroke-width="1"
     id="path450"
     style="stroke:#8a7345;stroke-opacity:1" />
  <path
     d="M 68.25,33.05 75.8,31.3 q 4.15,-1.1 6.45,-2.85 l 1.35,8.25 0.6,3.75 q -2.1,1.7 -9.6,3.65 -7.55,1.8 -19.95,2.5 -12.4,0.75 -19.2,-1.4 l -0.2,-11.9 6.55,1.15 8.95,0.15 q -0.65,1.75 -0.5,3.8 L 50.4,39 q -7.45,1.5 -14.9,1.75 12,2.55 24.7,1.45 12.75,-1.1 21.4,-4.75 l 2,-0.75 q -1.15,-2.45 -1.85,-2.2 -5.5,2.35 -12.35,3.05 L 69.3,36.9 q -0.15,-2.15 -1.05,-3.85"
     fill="#d8d6b0"
     fill-rule="evenodd"
     stroke="none"
     id="path452"
     style="fill:#bc9d5f;fill-opacity:1" />
  <path
     d="m 50.75,34.6 q 0.55,-1.7 1.75,-3.15 2.55,-2.95 6.5,-3.3 4.05,-0.3 7,2.25 1.4,1.2 2.25,2.65 0.9,1.7 1.05,3.85 l 0.1,0.65 q -4.4,1.3 -9.05,1.7 -4.9,0.4 -9.95,-0.25 l -0.15,-0.6 q -0.15,-2.05 0.5,-3.8"
     fill="#ecebd3"
     fill-rule="evenodd"
     stroke="none"
     id="path454"
     style="fill:#bc9d5f;fill-opacity:1" />
  <path
     d="m 68.249999,33.050007 7.55,-1.75 q 4.15,-1.1 6.45,-2.85 l 1.35,8.25 0.6,3.75 q -2.1,1.7 -9.6,3.65 -7.55,1.8 -19.95,2.5 -12.4,0.75 -19.2,-1.4 l -0.2,-11.9 6.55,1.15 8.95,0.15 q 0.55,-1.7 1.75,-3.15 2.55,-2.95 6.5,-3.3 4.05,-0.3 7,2.25 1.4,1.2 2.25,2.65 0.9,1.7 1.05,3.85 l 0.1,0.65 m -19,1.45 -0.15,-0.6 q -0.15,-2.05 0.5,-3.8"
     fill="none"
     stroke="#85846c"
     stroke-linecap="round"
     stroke-linejoin="round"
     stroke-width="1"
     id="path456"
     style="stroke:#8a7345;stroke-opacity:1" />
  <path
     d="m 53.35,33.35 q 1.2,-0.85 3.95,2.35 1.35,1.6 1.2,2.35 Q 56,37.5 54.15,36 q -2.1,-1.65 -0.8,-2.65 m 7.35,-0.7 q 0.15,2.55 -0.85,5.15 -0.7,-0.4 -1.2,-2.55 -1.05,-4.4 0.35,-4.95 1.55,-0.6 1.7,2.35 m 1.35,2.6 q 2.75,-3.2 3.95,-2.35 1.3,1 -0.8,2.65 -1.85,1.5 -4.35,2.05 -0.15,-0.75 1.2,-2.35"
     fill="#85846c"
     fill-rule="evenodd"
     stroke="none"
     id="path458"
     style="fill:#8a7345;fill-opacity:1" />
  <path
     d="m 83.15,33.95 0.45,2.75 -2,0.75 Q 72.95,41.1 60.2,42.2 47.45,43.3 35.4,40.75 l -0.05,-3 q 12.15,2.6 25,1.5 12.75,-1.1 21.4,-4.75 l 1.4,-0.55"
     fill="#af984e"
     fill-rule="evenodd"
     stroke="none"
     id="path460"
     style="fill:#bc9d5f;fill-opacity:1" />
  <path
     d="m 83.149999,33.95 0.45,2.75 -2,0.75 q -8.65,3.65 -21.4,4.75 -12.75,1.1 -24.8,-1.45 l -0.05,-3 q 12.15,2.6 25,1.5 12.75,-1.1 21.4,-4.75 z"
     fill="none"
     stroke="#7b673f"
     stroke-linecap="round"
     stroke-linejoin="round"
     stroke-width="1"
     id="path462"
     style="stroke:#8a7345;stroke-opacity:1" />
</svg>
